{
.appVersion = "1286";
DisplayStrings = (
"Ç",
C
);
copyright = "Copyright © 2020 by Adriana Mazurek. All rights reserved.";
customParameters = (
{
name = glyphOrder;
value = (
.notdef,
space,
exclam,
quotedbl,
numbersign,
dollar,
percent,
ampersand,
quoteright,
parenleft,
parenright,
asterisk,
plus,
comma,
hyphen,
period,
slash,
zero,
one,
two,
three,
four,
five,
six,
seven,
eight,
nine,
colon,
semicolon,
less,
equal,
greater,
question,
at,
A,
B,
C,
D,
E,
F,
G,
H,
I,
J,
K,
L,
M,
N,
O,
P,
Q,
R,
S,
T,
U,
V,
W,
X,
Y,
Z,
bracketleft,
backslash,
bracketright,
asciicircum,
underscore,
quoteleft,
a,
b,
c,
d,
e,
f,
g,
h,
i,
j,
k,
l,
m,
n,
o,
p,
q,
r,
s,
t,
u,
v,
w,
x,
y,
z,
braceleft,
bar,
braceright,
asciitilde,
exclamdown,
cent,
sterling,
fraction,
yen,
section,
currency,
quotesingle,
quotedblleft,
guillemotleft,
guilsinglleft,
guilsinglright,
fi,
fl,
endash,
dagger,
daggerdbl,
paragraph,
bullet,
quotesinglbase,
quotedblbase,
quotedblright,
guillemotright,
ellipsis,
questiondown,
grave,
acute,
circumflex,
tilde,
breve,
dotaccent,
dieresis,
ring,
cedilla,
hungarumlaut,
ogonek,
caron,
emdash,
AE,
ordfeminine,
Oslash,
ordmasculine,
ae,
dotlessi,
oslash,
germandbls,
logicalnot,
mu,
trademark,
Eth,
onehalf,
plusminus,
Thorn,
onequarter,
divide,
brokenbar,
degree,
thorn,
threequarters,
registered,
minus,
eth,
multiply,
copyright,
Aacute,
Acircumflex,
Adieresis,
Agrave,
Aring,
Atilde,
Ccedilla,
Eacute,
Ecircumflex,
Edieresis,
Egrave,
Iacute,
Icircumflex,
Idieresis,
Igrave,
Ntilde,
Oacute,
Ocircumflex,
Odieresis,
Ograve,
Otilde,
Uacute,
Ucircumflex,
Udieresis,
Ugrave,
Yacute,
aacute,
acircumflex,
adieresis,
agrave,
aring,
atilde,
ccedilla,
eacute,
ecircumflex,
edieresis,
egrave,
iacute,
icircumflex,
idieresis,
igrave,
ntilde,
oacute,
ocircumflex,
odieresis,
ograve,
otilde,
uacute,
ucircumflex,
udieresis,
ugrave,
yacute,
ydieresis,
NULL,
CR,
Euro,
uni00A0,
uni00AD,
overscore,
uni00B2,
uni00B3,
middot,
uni00B9,
uni02C9,
franc,
lira,
peseta,
afii61352,
partialdiff,
increment,

glyphs = (
{
glyphname = exclam;
lastChange = "2020-06-12 09:55:02 +0000";
layers = (
{
layerId = "F37AB417-88C0-44AC-8CB6-E42EDC742658";
paths = (
{
closed = 1;
nodes = (
"267 963 LINE",
"275 326 LINE",
"327 112 LINE",
"401 45 LINE",
"482 82 LINE",
"467 1007 LINE",
"423 1333 LINE",
"319 1437 LINE",
"275 1363 LINE"
);
},
{
closed = 1;
nodes = (
"223 1754 LINE",
"215 1680 LINE",
"289 1577 LINE",
"385 1577 LINE",
"467 1643 LINE",
"474 1762 LINE",
"415 1828 LINE",
"304 1806 LINE"
);
}
);
width = 672;
}
);
note = "\012		exclamdown\012  ";
unicode = 0021;
},
{
glyphname = quotedbl;
layers = (
{
layerId = "F37AB417-88C0-44AC-8CB6-E42EDC742658";
paths = (
{
closed = 1;
nodes = (
"95 1274 LINE",
"-53 1178 LINE",
"117 1200 LINE",
"229 1289 LINE",
"243 1474 LINE",
"184 1585 LINE",
"66 1607 LINE",
"-53 1526 LINE",
"-45 1422 LINE",
"132 1408 LINE"
);
},
{
closed = 1;
nodes = (
"502 1274 LINE",
"354 1178 LINE",
"524 1200 LINE",
"636 1289 LINE",
"650 1474 LINE",
"591 1585 LINE",
"473 1607 LINE",
"354 1526 LINE",
"362 1422 LINE",
"539 1408 LINE"
);
}
);
width = 672;
}
);
note = "\012		quotedbl\012  ";
unicode = 0022;
},
{
glyphname = numbersign;
layers = (
{
layerId = "F37AB417-88C0-44AC-8CB6-E42EDC742658";
paths = (
{
closed = 1;
nodes = (
"863 -3 LINE",
"910 509 LINE",
"1154 480 LINE",
"1169 694 LINE",
"940 709 LINE",
"969 1087 LINE",
"1162 1049 LINE",
"1184 1183 LINE",
"977 1198 LINE",
"1014 1479 LINE",
"881 1494 LINE",
"836 1220 LINE",
"503 1212 LINE",
"533 1501 LINE",
"407 1508 LINE",
"370 1205 LINE",
"200 1212 LINE",
"177 1035 LINE",
"348 1042 LINE",
"325 702 LINE",
"155 702 LINE",
"126 509 LINE",
"318 502 LINE",
"254 16 LINE",
"449 16 LINE",
"510 502 LINE",
"747 487 LINE",
"694 -3 LINE"
);
},
{
closed = 1;
nodes = (
"784 702 LINE",
"510 709 LINE",
"540 1057 LINE",
"792 1057 LINE"
);
}
);
userData = {
com.schriftgestaltung.Glyphs.lastChange = "2020-06-12 01:56:41 +0000";
};
width = 1336;
}
);
note = "\012		numbersign\012  ";
unicode = 0023;
},
{
glyphname = dollar;
layers = (
{
layerId = "F37AB417-88C0-44AC-8CB6-E42EDC742658";
paths = (
{
closed = 1;
nodes = (
"1087 1205 LINE",
"1019 1339 LINE",
"846 1430 LINE",
"741 1442 LINE",
"738 1693 LINE",
"608 1693 LINE",
"623 1456 LINE",
"433 1420 LINE",
"317 1319 LINE",
"268 1129 LINE",
"322 960 LINE",
"441 856 LINE",
"613 795 LINE",
"570 210 LINE",
"698 203 LINE",
"735 796 LINE",
"792 779 LINE",
"951 645 LINE",
"972 466 LINE",
"930 269 LINE",
"707 208 LINE",
"623 208 LINE",
"440 248 LINE",
"295 250 LINE",
"225 149 LINE",
"539 78 LINE",
"542 -157 LINE",
"683 -144 LINE",
"709 94 LINE",
"863 105 LINE",
"982 175 LINE",
"1074 265 LINE",
"1147 381 LINE",
"1170 553 LINE",
"1094 726 LINE",
"990 827 LINE",
"885 876 LINE",
"719 883 LINE",
"742 1313 LINE",
"833 1311 LINE",
"910 1229 LINE",
"956 1152 LINE"
);
},
{
closed = 1;
nodes = (
"647 1381 LINE",
"632 989 LINE",
"465 1078 LINE",
"393 1190 LINE",
"483 1356 LINE"
);
}
);
userData = {
com.schriftgestaltung.Glyphs.lastChange = "2020-06-12 09:36:23 +0000";
};
width = 1362;
}
);
note = "\012		dollar\012  ";
unicode = 0024;
},
{
glyphname = percent;
layers = (
{
layerId = "F37AB417-88C0-44AC-8CB6-E42EDC742658";
paths = (
{
closed = 1;
nodes = (
"215 7 LINE",
"340 192 LINE",
"1495 1584 LINE",
"1347 1717 LINE",
"81 111 LINE",
"22 -14 LINE"
);
},
{
closed = 1;
nodes = (
"1207 -33 LINE",
"1295 7 LINE",
"1363 53 LINE",
"1451 127 LINE",
"1507 225 LINE",
"1532 356 LINE",
"1501 459 LINE",
"1451 528 LINE",
"1213 592 LINE",
"1064 574 LINE",
"814 391 LINE",
"776 208 LINE",
"820 110 LINE",
"882 36 LINE",
"1007 -21 LINE",
"1082 -45 LINE"
);
},
{
closed = 1;
nodes = (
"1047 160 LINE",
"1019 285 LINE",
"1052 389 LINE",
"1134 425 LINE",
"1234 425 LINE",
"1257 384 LINE",
"1287 282 LINE",
"1237 185 LINE",
"1162 116 LINE"
);
},
{
closed = 1;
nodes = (
"287 1400 LINE",
"259 1525 LINE",
"292 1629 LINE",
"374 1665 LINE",
"474 1665 LINE",
"497 1624 LINE",
"527 1522 LINE",
"477 1425 LINE",
"402 1356 LINE"
);
},
{
closed = 1;
nodes = (
"552 1247 LINE",
"700 1408 LINE",
"718 1531 LINE",
"681 1769 LINE",
"601 1819 LINE",
"455 1836 LINE",
"344 1797 LINE",
"190 1730 LINE",
"111 1608 LINE",
"111 1408 LINE",
"147 1264 LINE",
"252 1180 LINE",
"460 1169 LINE"
);
}
);
userData = {
com.schriftgestaltung.Glyphs.lastChange = "2020-06-12 02:00:05 +0000";
};
width = 1610;
}
);
note = "\012		percent\012  ";
unicode = 0025;
},
{
glyphname = ampersand;
layers = (
{
layerId = "F37AB417-88C0-44AC-8CB6-E42EDC742658";
paths = (
{
closed = 1;
nodes = (
"833 1721 LINE",
"633 1684 LINE",
"471 1550 LINE",
"411 1306 LINE",
"448 1040 LINE",
"278 951 LINE",
"152 818 LINE",
"56 618 LINE",
"34 351 LINE",
"145 129 LINE",
"278 48 LINE",
"508 26 LINE",
"641 41 LINE",
"900 100 LINE",
"1087 199 LINE",
"1114 152 LINE",
"1263 -70 LINE",
"1374 -77 LINE",
"1618 -3 LINE",
"1536 78 LINE",
"1368 44 LINE",
"1292 70 LINE",
"1209 260 LINE",
"1307 307 LINE",
"1477 485 LINE",
"1551 670 LINE",
"1485 884 LINE",
"1322 943 LINE",
"1203 869 LINE",
"1263 773 LINE",
"1344 862 LINE",
"1418 677 LINE",
"1366 470 LINE",
"1169 360 LINE",
"952 647 LINE",
"611 1025 LINE",
"508 1291 LINE",
"552 1469 LINE",
"730 1595 LINE",
"932 1457 LINE",
"1085 1506 LINE",
"996 1669 LINE"
);
},
{
closed = 1;
nodes = (
"1007 286 LINE",
"933 249 OFFCURVE",
"891 179 OFFCURVE",
"715 138 CURVE",
"546 138 OFFCURVE",
"482 141 OFFCURVE",
"349 206 CURVE",
"221 411 OFFCURVE",
"192 446 OFFCURVE",
"219 655 CURVE",
"219 814 OFFCURVE",
"301 945 OFFCURVE",
"460 945 CURVE"
);
}
);
userData = {
com.schriftgestaltung.Glyphs.lastChange = "2020-06-12 09:32:19 +0000";
};
width = 1683;
}
);
note = "\012		ampersand\012  ";
unicode = 0026;
},
{
glyphname = quoteright;
layers = (
{
layerId = "F37AB417-88C0-44AC-8CB6-E42EDC742658";
paths = (
{
closed = 1;
nodes = (
"244 1398 LINE",
"340 1368 LINE",
"362 1257 LINE",
"347 1183 LINE",
"303 1042 LINE",
"399 1116 LINE",
"458 1190 LINE",
"495 1279 LINE",
"458 1435 LINE",
"436 1546 LINE",
"310 1598 LINE",
"185 1450 LINE"
);
}
);
width = 557;
}
);
note = "\012		quoteright\012  ";
unicode = 2019;
},
{
glyphname = parenleft;
layers = (
{
layerId = "F37AB417-88C0-44AC-8CB6-E42EDC742658";
paths = (
{
closed = 1;
nodes = (
"659 1777 LINE",
"540 1643 LINE",
"274 1318 LINE",
"207 1184 LINE",
"148 844 LINE",
"177 637 LINE",
"229 281 LINE",
"288 104 LINE",
"414 -199 LINE",
"525 -355 LINE",
"622 -295 LINE",
"548 -199 LINE",
"474 67 LINE",
"414 348 LINE",
"370 711 LINE",
"385 1022 LINE",
"518 1310 LINE",
"673 1532 LINE",
"807 1703 LINE"
);
}
);
userData = {
com.schriftgestaltung.Glyphs.lastChange = "2020-06-12 09:33:02 +0000";
};
width = 888;
}
);
note = "\012		parenleft\012  ";
unicode = 0028;
},
{
glyphname = parenright;
layers = (
{
layerId = "F37AB417-88C0-44AC-8CB6-E42EDC742658";
paths = (
{
closed = 1;
nodes = (
"163 1651 LINE",
"297 1480 LINE",
"452 1258 LINE",
"585 970 LINE",
"600 659 LINE",
"556 296 LINE",
"496 15 LINE",
"422 -251 LINE",
"348 -347 LINE",
"445 -407 LINE",
"608 -88 LINE",
"741 229 LINE",
"793 585 LINE",
"807 962 LINE",
"696 1266 LINE",
"430 1591 LINE",
"311 1725 LINE"
);
}
);
userData = {
com.schriftgestaltung.Glyphs.lastChange = "2020-06-12 09:34:19 +0000";
};
width = 1014;
}
);
note = "\012		parenright\012  ";
unicode = 0029;
},
{
glyphname = asterisk;
layers = (
{
layerId = "F37AB417-88C0-44AC-8CB6-E42EDC742658";
paths = (
{
closed = 1;
nodes = (
"476 1322 LINE",
"225 1440 LINE",
"165 1240 LINE",
"447 1226 LINE",
"247 967 LINE",
"373 893 LINE",
"543 1159 LINE",
"765 930 LINE",
"839 1078 LINE",
"595 1248 LINE",
"839 1433 LINE",
"780 1514 LINE",
"573 1337 LINE",
"543 1625 LINE",
"462 1618 LINE"
);
}
);
userData = {
com.schriftgestaltung.Glyphs.lastChange = "2020-06-12 09:27:52 +0000";
};
width = 1024;
}
);
note = "\012		asterisk\012  ";
unicode = 002A;
},
{
glyphname = plus;
layers = (
{
layerId = "F37AB417-88C0-44AC-8CB6-E42EDC742658";
paths = (
{
closed = 1;
nodes = (
"400 262 LINE",
"577 277 LINE",
"577 647 LINE",
"934 603 LINE",
"927 786 LINE",
"926 787 LINE",
"614 779 LINE",
"629 1135 LINE",
"438 1157 LINE",
"437 1156 LINE",
"437 787 LINE",
"117 809 LINE",
"87 647 LINE",
"437 647 LINE"
);
}
);
width = 1014;
}
);
note = "\012		plus\012  ";
unicode = 002B;
},
{
glyphname = comma;
layers = (
{
layerId = "F37AB417-88C0-44AC-8CB6-E42EDC742658";
paths = (
{
closed = 1;
nodes = (
"177 -81 LINE",
"29 -177 LINE",
"199 -155 LINE",
"311 -66 LINE",
"325 119 LINE",
"266 230 LINE",
"148 252 LINE",
"29 171 LINE",
"37 67 LINE",
"214 53 LINE"
);
}
);
width = 557;
}
);
note = "\012		comma\012  ";
unicode = 002C;
},
{
glyphname = hyphen;
layers = (
{
layerId = "F37AB417-88C0-44AC-8CB6-E42EDC742658";
paths = (
{
closed = 1;
nodes = (
"222 991 LINE",
"214 791 LINE",
"836 761 LINE",
"873 961 LINE"
);
}
);
width = 1125;
}
);
note = "\012		hyphen\012  ";
unicode = 002D;
},
{
glyphname = period;
layers = (
{
layerId = "F37AB417-88C0-44AC-8CB6-E42EDC742658";
paths = (
{
closed = 1;
nodes = (
"145 167 LINE SMOOTH",
"134 156 OFFCURVE",
"129 146 OFFCURVE",
"129 136 CURVE SMOOTH",
"129 127 OFFCURVE",
"132 119 OFFCURVE",
"139 110 CURVE SMOOTH",
"227 9 LINE SMOOTH",
"234 0 OFFCURVE",
"244 -5 OFFCURVE",
"256 -5 CURVE SMOOTH",
"263 -5 OFFCURVE",
"273 1 OFFCURVE",
"285 15 CURVE SMOOTH",
"365 103 LINE SMOOTH",
"375 114 OFFCURVE",
"379 124 OFFCURVE",
"379 134 CURVE SMOOTH",
"379 142 OFFCURVE",
"375 152 OFFCURVE",
"367 163 CURVE",
"287 249 LINE SMOOTH",
"277 260 OFFCURVE",
"267 265 OFFCURVE",
"256 265 CURVE SMOOTH",
"246 265 OFFCURVE",
"236 260 OFFCURVE",
"227 251 CURVE SMOOTH"
);
}
);
width = 557;
}
);
note = "\012		period\012  ";
unicode = 002E;
},
{
glyphname = slash;
layers = (
{
layerId = "F37AB417-88C0-44AC-8CB6-E42EDC742658";
paths = (
{
closed = 1;
nodes = (
"134 186 LINE",
"319 193 LINE",
"874 1511 LINE",
"704 1525 LINE"
);
}
);
width = 977;
}
);
note = "\012		slash\012  ";
unicode = 002F;
},
{
glyphname = zero;
layers = (
{
layerId = "F37AB417-88C0-44AC-8CB6-E42EDC742658";
paths = (
{
closed = 1;
nodes = (
"658 7 LINE",
"819 195 LINE",
"892 684 LINE",
"844 1165 LINE",
"658 1511 LINE",
"324 1504 LINE",
"125 1166 LINE",
"125 700 LINE",
"173 179 LINE",
"379 7 LINE"
);
},
{
closed = 1;
nodes = (
"257 506 LINE",
"227 1031 LINE",
"486 1394 LINE",
"736 930 LINE",
"687 393 LINE",
"500 151 LINE"
);
}
);
userData = {
com.schriftgestaltung.Glyphs.lastChange = "2020-06-12 01:54:37 +0000";
};
width = 1014;
}
);
note = "\012		zero\012  ";
unicode = 0030;
},
{
glyphname = one;
layers = (
{
layerId = "F37AB417-88C0-44AC-8CB6-E42EDC742658";
paths = (
{
closed = 1;
nodes = (
"158 1129 LINE",
"319 1262 LINE",
"325 72 LINE",
"437 16 LINE",
"437 1511 LINE",
"285 1514 LINE",
"139 1381 LINE"
);
}
);
userData = {
com.schriftgestaltung.Glyphs.lastChange = "2020-06-12 01:54:05 +0000";
};
width = 592;
}
);
note = "\012		one\012  ";
unicode = 0031;
},
{
glyphname = two;
layers = (
{
layerId = "F37AB417-88C0-44AC-8CB6-E42EDC742658";
paths = (
{
closed = 1;
nodes = (
"312 1155 LINE",
"711 1288 LINE",
"882 1125 LINE",
"772 865 LINE",
"494 480 LINE",
"132 52 LINE",
"1036 -23 LINE",
"1042 172 LINE",
"543 172 LINE",
"633 398 LINE",
"988 845 LINE",
"1015 1207 LINE",
"883 1414 LINE",
"563 1433 LINE",
"289 1348 LINE"
);
}
);
userData = {
com.schriftgestaltung.Glyphs.lastChange = "2020-06-11 20:24:24 +0000";
};
width = 1169;
}
);
note = "\012		two\012  ";
unicode = 0032;
},
{
glyphname = three;
layers = (
{
layerId = "F37AB417-88C0-44AC-8CB6-E42EDC742658";
paths = (
{
closed = 1;
nodes = (
"267 1452 LINE",
"126 1295 LINE",
"903 1295 LINE",
"511 805 LINE",
"555 659 LINE",
"916 659 LINE",
"850 311 LINE",
"484 133 LINE",
"238 332 LINE",
"67 243 LINE",
"176 98 LINE",
"406 0 LINE",
"881 0 LINE",
"1088 148 LINE",
"1088 526 LINE",
"1011 831 LINE",
"751 798 LINE",
"809 920 LINE",
"1044 1266 LINE",
"1036 1458 LINE"
);
}
);
userData = {
com.schriftgestaltung.Glyphs.lastChange = "2020-06-11 20:24:40 +0000";
};
width = 1221;
}
);
note = "\012		three\012  ";
unicode = 0033;
},
{
glyphname = four;
layers = (
{
layerId = "F37AB417-88C0-44AC-8CB6-E42EDC742658";
paths = (
{
closed = 1;
nodes = (
"227 1277 LINE",
"161 229 LINE",
"775 376 LINE",
"704 -81 LINE",
"826 0 LINE",
"875 352 LINE",
"1044 341 LINE",
"1052 482 LINE",
"889 504 LINE",
"955 1370 LINE",
"778 1362 LINE",
"778 511 LINE",
"361 496 LINE",
"415 1362 LINE"
);
}
);
userData = {
com.schriftgestaltung.Glyphs.lastChange = "2020-06-11 20:25:02 +0000";
};
width = 1221;
}
);
note = "\012		four\012  ";
unicode = 0034;
},
{
glyphname = five;
layers = (
{
layerId = "F37AB417-88C0-44AC-8CB6-E42EDC742658";
paths = (
{
closed = 1;
nodes = (
"838 1430 LINE",
"259 1458 LINE",
"240 944 LINE",
"688 896 LINE",
"735 445 LINE",
"460 196 LINE",
"272 284 LINE",
"272 419 LINE",
"74 424 LINE",
"152 224 LINE",
"309 88 LINE",
"616 95 LINE",
"865 245 LINE",
"936 602 LINE",
"888 908 LINE",
"767 1016 LINE",
"344 1080 LINE",
"347 1333 LINE",
"837 1279 LINE"
);
}
);
userData = {
com.schriftgestaltung.Glyphs.lastChange = "2020-06-11 20:25:21 +0000";
};
width = 1014;
}
);
note = "\012		five\012  ";
unicode = 0035;
},
{
glyphname = six;
layers = (
{
layerId = "F37AB417-88C0-44AC-8CB6-E42EDC742658";
paths = (
{
closed = 1;
nodes = (
"926 68 LINE",
"1021 348 LINE",
"972 729 LINE",
"674 807 LINE",
"215 615 LINE",
"363 1207 LINE",
"503 1355 LINE",
"804 1130 LINE",
"935 1248 LINE",
"622 1481 LINE",
"311 1425 LINE",
"192 1177 LINE",
"103 694 LINE",
"125 245 LINE",
"510 0 LINE"
);
},
{
closed = 1;
nodes = (
"474 298 LINE",
"358 471 LINE",
"663 611 LINE",
"793 415 LINE",
"697 224 LINE"
);
}
);
userData = {
com.schriftgestaltung.Glyphs.lastChange = "2020-06-11 20:25:37 +0000";
};
width = 1118;
}
);
note = "\012		six\012  ";
unicode = 0036;
},
{
glyphname = seven;
layers = (
{
layerId = "F37AB417-88C0-44AC-8CB6-E42EDC742658";
paths = (
{
closed = 1;
nodes = (
"112 1421 LINE",
"180 1155 LINE",
"649 1272 LINE",
"590 866 LINE",
"427 879 LINE",
"376 717 LINE",
"543 702 LINE",
"496 -38 LINE",
"626 -29 LINE",
"665 695 LINE",
"757 685 LINE",
"780 870 LINE",
"677 870 LINE",
"752 1462 LINE"
);
}
);
userData = {
com.schriftgestaltung.Glyphs.lastChange = "2020-06-11 20:25:52 +0000";
};
width = 851;
}
);
note = "\012		seven\012  ";
unicode = 0037;
},
{
glyphname = eight;
layers = (
{
layerId = "F37AB417-88C0-44AC-8CB6-E42EDC742658";
paths = (
{
closed = 1;
nodes = (
"170 1179 LINE",
"193 947 LINE",
"362 747 LINE",
"200 537 LINE",
"156 319 LINE",
"224 91 LINE",
"498 -36 LINE",
"773 88 LINE",
"870 319 LINE",
"795 555 LINE",
"666 762 LINE",
"851 977 LINE",
"859 1171 LINE",
"781 1396 LINE",
"545 1489 LINE",
"281 1417 LINE"
);
},
{
closed = 1;
nodes = (
"669 1228 LINE",
"603 1018 LINE",
"494 967 LINE",
"363 1106 LINE",
"458 1327 LINE"
);
},
{
closed = 1;
nodes = (
"674 383 LINE",
"562 225 LINE",
"389 199 LINE",
"324 425 LINE",
"487 584 LINE"
);
}
);
userData = {
com.schriftgestaltung.Glyphs.lastChange = "2020-06-11 20:26:08 +0000";
};
width = 1014;
}
);
note = "\012		eight\012  ";
unicode = 0038;
},
{
glyphname = nine;
layers = (
{
layerId = "F37AB417-88C0-44AC-8CB6-E42EDC742658";
paths = (
{
closed = 1;
nodes = (
"483 0 LINE",
"682 201 LINE",
"874 793 LINE",
"841 1239 LINE",
"689 1526 LINE",
"467 1592 LINE",
"254 1580 LINE",
"119 1403 LINE",
"47 1262 LINE",
"104 1013 LINE",
"267 857 LINE",
"578 837 LINE",
"690 936 LINE",
"733 726 LINE",
"593 297 LINE",
"436 166 LINE",
"267 8 LINE"
);
},
{
closed = 1;
nodes = (
"250 1176 LINE",
"217 1337 LINE",
"369 1427 LINE",
"558 1378 LINE",
"587 1174 LINE",
"437 1066 LINE"
);
}
);
userData = {
com.schriftgestaltung.Glyphs.lastChange = "2020-06-11 20:26:23 +0000";
};
width = 970;
}
);
note = "\012		nine\012  ";
unicode = 0039;
},
{
glyphname = colon;
layers = (
{
layerId = "F37AB417-88C0-44AC-8CB6-E42EDC742658";
paths = (
{
closed = 1;
nodes = (
"421 178 LINE",
"429 252 LINE",
"355 355 LINE",
"259 355 LINE",
"177 289 LINE",
"170 170 LINE",
"229 104 LINE",
"340 126 LINE"
);
},
{
closed = 1;
nodes = (
"414 659 LINE",
"422 733 LINE",
"348 836 LINE",
"252 836 LINE",
"170 770 LINE",
"163 651 LINE",
"222 585 LINE",
"333 607 LINE"
);
}
);
width = 557;
}
);
note = "\012		colon\012  ";
unicode = 003A;
},
{
glyphname = semicolon;
layers = (
{
layerId = "F37AB417-88C0-44AC-8CB6-E42EDC742658";
paths = (
{
closed = 1;
nodes = (
"318 111 LINE",
"170 15 LINE",
"340 37 LINE",
"452 126 LINE",
"466 311 LINE",
"407 422 LINE",
"289 444 LINE",
"170 363 LINE",
"178 259 LINE",
"355 245 LINE"
);
},
{
closed = 1;
nodes = (
"414 659 LINE",
"422 733 LINE",
"348 836 LINE",
"252 836 LINE",
"170 770 LINE",
"163 651 LINE",
"222 585 LINE",
"333 607 LINE"
);
}
);
width = 557;
}
);
note = "\012		semicolon\012  ";
unicode = 003B;
},
{
glyphname = less;
layers = (
{
layerId = "F37AB417-88C0-44AC-8CB6-E42EDC742658";
paths = (
{
closed = 1;
nodes = (
"977 1288 LINE",
"933 1399 LINE",
"52 762 LINE",
"52 637 LINE",
"1029 170 LINE",
"1073 355 LINE",
"207 703 LINE",
"977 1236 LINE"
);
}
);
width = 1147;
}
);
note = "\012		less\012  ";
unicode = 003C;
},
{
glyphname = equal;
layers = (
{
layerId = "F37AB417-88C0-44AC-8CB6-E42EDC742658";
paths = (
{
closed = 1;
nodes = (
"118 984 LINE",
"81 799 LINE",
"1140 725 LINE",
"1192 910 LINE",
"1155 955 LINE"
);
},
{
closed = 1;
nodes = (
"133 526 LINE",
"104 340 LINE",
"1103 303 LINE",
"1162 459 LINE",
"1140 533 LINE"
);
}
);
width = 1362;
}
);
note = "\012		equal\012  ";
unicode = 003D;
},
{
glyphname = greater;
layers = (
{
layerId = "F37AB417-88C0-44AC-8CB6-E42EDC742658";
paths = (
{
closed = 1;
nodes = (
"96 1199 LINE",
"74 1044 LINE",
"89 970 LINE",
"962 718 LINE",
"133 466 LINE",
"81 385 LINE",
"96 252 LINE",
"1118 629 LINE",
"1177 762 LINE",
"1155 866 LINE"
);
}
);
width = 1310;
}
);
note = "\012		greater\012  ";
unicode = 003E;
},
{
glyphname = question;
layers = (
{
layerId = "F37AB417-88C0-44AC-8CB6-E42EDC742658";
paths = (
{
closed = 1;
nodes = (
"200 81 LINE",
"333 30 LINE",
"422 52 LINE",
"511 126 LINE",
"503 244 LINE",
"400 274 LINE",
"229 207 LINE"
);
},
{
closed = 1;
nodes = (
"252 1503 LINE",
"333 1591 LINE",
"496 1636 LINE",
"711 1569 LINE",
"777 1384 LINE",
"688 1147 LINE",
"540 970 LINE",
"385 785 LINE",
"281 526 LINE",
"244 326 LINE",
"422 392 LINE",
"444 585 LINE",
"563 733 LINE",
"718 836 LINE",
"866 1029 LINE",
"910 1266 LINE",
"888 1525 LINE",
"674 1688 LINE",
"429 1717 LINE",
"222 1680 LINE",
"96 1547 LINE",
"89 1406 LINE",
"192 1399 LINE"
);
}
);
width = 1036;
}
);
note = "\012		question\012  ";
unicode = 003F;
},
{
glyphname = at;
layers = (
{
layerId = "F37AB417-88C0-44AC-8CB6-E42EDC742658";
paths = (
{
closed = 1;
nodes = (
"1132 -59 LINE",
"1125 74 LINE",
"955 7 LINE",
"733 59 LINE",
"570 163 LINE",
"333 333 LINE",
"259 526 LINE",
"303 859 LINE",
"414 1155 LINE",
"614 1369 LINE",
"910 1473 LINE",
"1221 1503 LINE",
"1466 1392 LINE",
"1651 1236 LINE",
"1717 1021 LINE",
"1725 829 LINE",
"1702 607 LINE",
"1584 474 LINE",
"1480 577 LINE",
"1429 666 LINE",
"1443 881 LINE",
"1347 1125 LINE",
"1140 1258 LINE",
"970 1243 LINE",
"755 1088 LINE",
"614 807 LINE",
"600 474 LINE",
"799 274 LINE",
"1103 222 LINE",
"1295 340 LINE",
"1362 540 LINE",
"1451 400 LINE",
"1591 303 LINE",
"1739 377 LINE",
"1813 570 LINE",
"1910 1044 LINE",
"1710 1369 LINE",
"1384 1614 LINE",
"1021 1665 LINE",
"629 1591 LINE",
"296 1332 LINE",
"111 873 LINE",
"81 474 LINE",
"207 185 LINE",
"407 52 LINE",
"659 -59 LINE",
"970 -111 LINE"
);
},
{
closed = 1;
nodes = (
"840 517 LINE",
"775 716 LINE",
"868 901 LINE",
"1004 1004 LINE",
"1167 1007 LINE",
"1250 831 LINE",
"1211 618 LINE",
"1085 446 LINE"
);
}
);
userData = {
com.schriftgestaltung.Glyphs.lastChange = "2020-06-12 01:57:47 +0000";
};
width = 2019;
}
);
note = "\012		at\012  ";
unicode = 0040;
},
{
glyphname = A;
layers = (
{
layerId = "F37AB417-88C0-44AC-8CB6-E42EDC742658";
paths = (
{
closed = 1;
nodes = (
"239 0 LINE",
"386 569 LINE",
"903 764 LINE",
"1189 0 LINE",
"1516 0 LINE",
"1060 1730 LINE",
"457 1701 LINE",
"21 0 LINE"
);
},
{
closed = 1;
nodes = (
"566 1239 LINE",
"818 1491 LINE",
"892 988 LINE",
"503 1008 LINE"
);
}
);
userData = {
com.schriftgestaltung.Glyphs.lastChange = "2020-06-12 03:20:42 +0000";
};
width = 1607;
}
);
note = "\012		A\012  ";
unicode = 0041;
},
{
glyphname = B;
layers = (
{
layerId = "F37AB417-88C0-44AC-8CB6-E42EDC742658";
paths = (
{
closed = 1;
nodes = (
"1162 57 LINE",
"1341 279 LINE",
"1341 639 LINE",
"1251 803 LINE",
"769 907 LINE",
"1209 1000 LINE",
"1326 1286 LINE",
"1238 1580 LINE",
"856 1729 LINE",
"203 1712 LINE",
"161 151 LINE",
"649 0 LINE"
);
},
{
closed = 1;
nodes = (
"398 324 LINE",
"398 716 LINE",
"1107 630 LINE",
"880 279 LINE"
);
},
{
closed = 1;
nodes = (
"446 1510 LINE",
"956 1488 LINE",
"1028 1225 LINE",
"446 1184 LINE"
);
}
);
userData = {
com.schriftgestaltung.Glyphs.lastChange = "2020-06-12 03:21:00 +0000";
};
width = 1469;
}
);
note = "\012		B\012  ";
unicode = 0042;
},
{
glyphname = C;
layers = (
{
layerId = "F37AB417-88C0-44AC-8CB6-E42EDC742658";
paths = (
{
closed = 1;
nodes = (
"1307 1436 LINE",
"887 1747 LINE",
"547 1724 LINE",
"96 1547 LINE",
"66 762 LINE",
"129 260 LINE",
"572 6 LINE",
"1102 40 LINE",
"1311 173 LINE",
"1340 545 LINE",
"1163 528 LINE",
"1128 337 LINE",
"940 260 LINE",
"316 582 LINE",
"316 1239 LINE",
"772 1566 LINE",
"1087 1338 LINE"
);
}
);
userData = {
com.schriftgestaltung.Glyphs.lastChange = "2020-06-12 03:21:12 +0000";
};
width = 1473;
}
);
note = "\012		C\012  ";
unicode = 0043;
},
{
glyphname = D;
layers = (
{
layerId = "F37AB417-88C0-44AC-8CB6-E42EDC742658";
paths = (
{
closed = 1;
nodes = (
"823 72 LINE",
"1196 358 LINE",
"1243 802 LINE",
"1053 1516 LINE",
"704 1711 LINE",
"150 1709 LINE",
"142 -16 LINE"
);
},
{
closed = 1;
nodes = (
"409 1483 LINE",
"914 1153 LINE",
"892 485 LINE",
"362 226 LINE"
);
}
);
userData = {
com.schriftgestaltung.Glyphs.lastChange = "2020-06-12 03:21:36 +0000";
};
width = 1331;
}
);
note = "\012		D\012  ";
unicode = 0044;
},
{
glyphname = E;
layers = (
{
layerId = "F37AB417-88C0-44AC-8CB6-E42EDC742658";
paths = (
{
closed = 1;
nodes = (
"119 1709 LINE",
"100 40 LINE",
"955 60 LINE",
"942 275 LINE",
"371 275 LINE",
"371 752 LINE",
"843 785 LINE",
"914 981 LINE",
"358 994 LINE",
"358 1514 LINE",
"914 1514 LINE",
"914 1639 LINE"
);
}
);
userData = {
com.schriftgestaltung.Glyphs.lastChange = "2020-06-12 03:21:46 +0000";
};
width = 1050;
}
);
note = "\012		E\012  ";
unicode = 0045;
},
{
glyphname = F;
layers = (
{
layerId = "F37AB417-88C0-44AC-8CB6-E42EDC742658";
paths = (
{
closed = 1;
nodes = (
"462 0 LINE",
"459 524 LINE",
"706 580 LINE",
"714 804 LINE",
"451 819 LINE",
"434 1289 LINE",
"895 1211 LINE",
"990 1501 LINE",
"189 1708 LINE",
"201 9 LINE"
);
}
);
userData = {
com.schriftgestaltung.Glyphs.lastChange = "2020-06-12 03:21:55 +0000";
};
width = 1119;
}
);
note = "\012		F\012  ";
unicode = 0046;
},
{
glyphname = G;
layers = (
{
layerId = "F37AB417-88C0-44AC-8CB6-E42EDC742658";
paths = (
{
closed = 1;
nodes = (
"1359 1534 LINE",
"891 1702 LINE",
"665 1707 LINE",
"409 1634 LINE",
"209 1213 LINE",
"165 951 LINE",
"165 425 LINE",
"349 -2 LINE",
"830 -52 LINE",
"1359 87 LINE",
"1451 374 LINE",
"1374 720 LINE",
"652 786 LINE",
"757 520 LINE",
"1177 520 LINE",
"1109 306 LINE",
"731 189 LINE",
"450 425 LINE",
"407 907 LINE",
"543 1406 LINE",
"879 1434 LINE",
"1141 1281 LINE"
);
}
);
userData = {
com.schriftgestaltung.Glyphs.lastChange = "2020-06-12 03:22:04 +0000";
};
width = 1587;
}
);
note = "\012		G\012  ";
unicode = 0047;
},
{
glyphname = H;
layers = (
{
layerId = "F37AB417-88C0-44AC-8CB6-E42EDC742658";
paths = (
{
closed = 1;
nodes = (
"188 1714 LINE",
"204 99 LINE",
"397 14 LINE",
"390 744 LINE",
"814 910 LINE",
"850 33 LINE",
"981 22 LINE",
"944 1714 LINE",
"811 1706 LINE",
"813 1115 LINE",
"382 1059 LINE",
"382 1597 LINE"
);
}
);
userData = {
com.schriftgestaltung.Glyphs.lastChange = "2020-06-12 03:22:19 +0000";
};
width = 1167;
}
);
note = "\012		H\012  ";
unicode = 0048;
},
{
glyphname = I;
layers = (
{
layerId = "F37AB417-88C0-44AC-8CB6-E42EDC742658";
paths = (
{
closed = 1;
nodes = (
"160 1707 LINE",
"160 212 LINE",
"431 47 LINE",
"461 1714 LINE"
);
}
);
userData = {
com.schriftgestaltung.Glyphs.lastChange = "2020-06-12 03:22:29 +0000";
};
width = 657;
}
);
note = "\012		I\012  ";
unicode = 0049;
},
{
glyphname = J;
layers = (
{
layerId = "F37AB417-88C0-44AC-8CB6-E42EDC742658";
paths = (
{
closed = 1;
nodes = (
"175 178 LINE",
"481 -41 LINE",
"795 15 LINE",
"908 264 LINE",
"903 1658 LINE",
"714 1715 LINE",
"714 1022 LINE",
"714 436 LINE",
"672 252 LINE",
"511 198 LINE",
"353 519 LINE",
"114 610 LINE"
);
}
);
userData = {
com.schriftgestaltung.Glyphs.lastChange = "2020-06-12 03:22:38 +0000";
};
width = 1155;
}
);
note = "\012		J\012  ";
unicode = 004A;
},
{
glyphname = K;
layers = (
{
layerId = "F37AB417-88C0-44AC-8CB6-E42EDC742658";
paths = (
{
closed = 1;
nodes = (
"195 1711 LINE",
"214 68 LINE",
"379 26 LINE",
"376 669 LINE",
"964 33 LINE",
"1151 155 LINE",
"519 877 LINE",
"1194 1689 LINE",
"851 1579 LINE",
"368 1030 LINE",
"368 1691 LINE"
);
}
);
userData = {
com.schriftgestaltung.Glyphs.lastChange = "2020-06-12 03:22:47 +0000";
};
width = 1357;
}
);
note = "\012		K\012  ";
unicode = 004B;
},
{
glyphname = L;
layers = (
{
layerId = "F37AB417-88C0-44AC-8CB6-E42EDC742658";
paths = (
{
closed = 1;
nodes = (
"174 1710 LINE",
"139 27 LINE",
"816 27 LINE",
"816 367 LINE",
"293 269 LINE",
"347 1637 LINE"
);
}
);
userData = {
com.schriftgestaltung.Glyphs.lastChange = "2020-06-12 03:23:07 +0000";
};
width = 962;
}
);
note = "\012		L\012  ";
unicode = 004C;
},
{
glyphname = M;
layers = (
{
layerId = "F37AB417-88C0-44AC-8CB6-E42EDC742658";
paths = (
{
closed = 1;
nodes = (
"363 0 LINE",
"369 1232 LINE",
"588 686 LINE",
"820 632 LINE",
"1080 1300 LINE",
"1096 0 LINE",
"1330 0 LINE",
"1283 1594 LINE",
"1071 1697 LINE",
"680 974 LINE",
"381 1697 LINE",
"136 1697 LINE",
"160 115 LINE"
);
}
);
userData = {
com.schriftgestaltung.Glyphs.lastChange = "2020-06-12 03:23:15 +0000";
};
width = 1490;
}
);
note = "\012		M\012  ";
unicode = 004D;
},
{
glyphname = N;
layers = (
{
layerId = "F37AB417-88C0-44AC-8CB6-E42EDC742658";
paths = (
{
closed = 1;
nodes = (
"274 1584 LINE",
"222 12 LINE",
"415 0 LINE",
"482 1381 LINE",
"1164 10 LINE",
"1381 9 LINE",
"1418 1625 LINE",
"1207 1698 LINE",
"1108 518 LINE",
"555 1684 LINE"
);
}
);
userData = {
com.schriftgestaltung.Glyphs.lastChange = "2020-06-12 03:23:37 +0000";
};
width = 1639;
}
);
note = "\012		N\012  ";
unicode = 004E;
},
{
glyphname = O;
layers = (
{
layerId = "F37AB417-88C0-44AC-8CB6-E42EDC742658";
paths = (
{
closed = 1;
nodes = (
"1218 0 LINE",
"1679 320 LINE",
"1784 819 LINE",
"1717 1412 LINE",
"1234 1701 LINE",
"678 1701 LINE",
"228 1441 LINE",
"102 824 LINE",
"317 248 LINE",
"720 0 LINE"
);
},
{
closed = 1;
nodes = (
"1287 1455 LINE",
"1491 1086 LINE",
"1523 596 LINE",
"1184 249 LINE",
"660 249 LINE",
"424 593 LINE",
"424 1086 LINE",
"624 1465 LINE"
);
}
);
userData = {
com.schriftgestaltung.Glyphs.lastChange = "2020-06-12 03:23:51 +0000";
};
width = 1887;
}
);
note = "\012		O\012  ";
unicode = 004F;
},
{
glyphname = P;
layers = (
{
layerId = "F37AB417-88C0-44AC-8CB6-E42EDC742658";
paths = (
{
closed = 1;
nodes = (
"432 0 LINE",
"439 697 LINE",
"798 703 LINE",
"1053 948 LINE",
"1053 1416 LINE",
"810 1692 LINE",
"218 1659 LINE",
"231 1217 LINE",
"225 643 LINE",
"213 -10 LINE"
);
},
{
closed = 1;
nodes = (
"367 1451 LINE",
"676 1461 LINE",
"875 1237 LINE",
"726 999 LINE",
"409 950 LINE"
);
}
);
userData = {
com.schriftgestaltung.Glyphs.lastChange = "2020-06-12 03:24:03 +0000";
};
width = 1144;
}
);
note = "\012		P\012  ";
unicode = 0050;
},
{
glyphname = Q;
layers = (
{
layerId = "F37AB417-88C0-44AC-8CB6-E42EDC742658";
paths = (
{
closed = 1;
nodes = (
"1153 0 LINE",
"1389 160 LINE",
"1501 0 LINE",
"1719 0 LINE",
"1590 268 LINE",
"1697 318 LINE",
"1802 813 LINE",
"1735 1402 LINE",
"1255 1688 LINE",
"704 1688 LINE",
"257 1430 LINE",
"132 818 LINE",
"345 247 LINE",
"746 0 LINE"
);
},
{
closed = 1;
nodes = (
"1309 1445 LINE",
"1510 1078 LINE",
"1542 592 LINE",
"1207 248 LINE",
"685 248 LINE",
"451 590 LINE",
"451 1078 LINE",
"651 1454 LINE"
);
}
);
userData = {
com.schriftgestaltung.Glyphs.lastChange = "2020-06-12 03:24:14 +0000";
};
width = 1927;
}
);
note = "\012		Q\012  ";
unicode = 0051;
},
{
glyphname = R;
layers = (
{
layerId = "F37AB417-88C0-44AC-8CB6-E42EDC742658";
paths = (
{
closed = 1;
nodes = (
"349 -17 LINE",
"433 691 LINE",
"768 -1 LINE",
"985 65 LINE",
"607 759 LINE",
"945 971 LINE",
"945 1505 LINE",
"578 1722 LINE",
"178 1705 LINE",
"171 909 LINE",
"171 -1 LINE"
);
},
{
closed = 1;
nodes = (
"408 1479 LINE",
"711 1422 LINE",
"704 1126 LINE",
"410 970 LINE"
);
}
);
userData = {
com.schriftgestaltung.Glyphs.lastChange = "2020-06-12 03:24:22 +0000";
};
width = 1120;
}
);
note = "\012		R\012  ";
unicode = 0052;
},
{
glyphname = S;
layers = (
{
layerId = "F37AB417-88C0-44AC-8CB6-E42EDC742658";
paths = (
{
closed = 1;
nodes = (
"1075 1551 LINE",
"850 1711 LINE",
"434 1711 LINE",
"144 1476 LINE",
"144 1183 LINE",
"418 919 LINE",
"697 861 LINE",
"929 687 LINE",
"947 438 LINE",
"816 269 LINE",
"452 269 LINE",
"199 400 LINE",
"189 116 LINE",
"571 0 LINE",
"924 48 LINE",
"1127 222 LINE",
"1160 560 LINE",
"1108 786 LINE",
"938 987 LINE",
"480 1119 LINE",
"352 1306 LINE",
"480 1558 LINE",
"783 1558 LINE",
"901 1424 LINE"
);
}
);
userData = {
com.schriftgestaltung.Glyphs.lastChange = "2020-06-12 03:24:31 +0000";
};
width = 1279;
}
);
note = "\012		S\012  ";
unicode = 0053;
},
{
glyphname = T;
layers = (
{
layerId = "F37AB417-88C0-44AC-8CB6-E42EDC742658";
paths = (
{
closed = 1;
nodes = (
"50 1454 LINE",
"415 1460 LINE",
"438 35 LINE",
"587 60 LINE",
"587 1464 LINE",
"1016 1464 LINE",
"1062 1705 LINE",
"50 1692 LINE"
);
}
);
userData = {
com.schriftgestaltung.Glyphs.lastChange = "2020-06-12 03:24:40 +0000";
};
width = 1111;
}
);
note = "\012		T\012  ";
unicode = 0054;
},
{
glyphname = U;
layers = (
{
layerId = "F37AB417-88C0-44AC-8CB6-E42EDC742658";
paths = (
{
closed = 1;
nodes = (
"291 1721 LINE",
"130 1721 LINE",
"130 935 LINE",
"141 582 LINE",
"380 71 LINE",
"676 15 LINE",
"978 145 LINE",
"1096 577 LINE",
"1081 1714 LINE",
"938 1714 LINE",
"959 505 LINE",
"649 344 LINE",
"291 505 LINE"
);
}
);
userData = {
com.schriftgestaltung.Glyphs.lastChange = "2020-06-12 03:24:56 +0000";
};
width = 1240;
}
);
note = "\012		U\012  ";
unicode = 0055;
},
{
glyphname = V;
layers = (
{
layerId = "F37AB417-88C0-44AC-8CB6-E42EDC742658";
paths = (
{
closed = 1;
nodes = (
"157 1701 LINE",
"483 147 LINE",
"687 -55 LINE",
"1058 1519 LINE",
"870 1656 LINE",
"570 309 LINE",
"319 1619 LINE"
);
}
);
userData = {
com.schriftgestaltung.Glyphs.lastChange = "2020-06-12 03:25:05 +0000";
};
width = 1126;
}
);
note = "\012		V\012  ";
unicode = 0056;
},
{
glyphname = W;
layers = (
{
layerId = "F37AB417-88C0-44AC-8CB6-E42EDC742658";
paths = (
{
closed = 1;
nodes = (
"549 10 LINE",
"845 0 LINE",
"903 880 LINE",
"1076 118 LINE",
"1392 5 LINE",
"1475 1617 LINE",
"1338 1678 LINE",
"1290 266 LINE",
"956 1319 LINE",
"756 1459 LINE",
"635 252 LINE",
"296 1709 LINE",
"151 1709 LINE"
);
}
);
userData = {
com.schriftgestaltung.Glyphs.lastChange = "2020-06-12 03:25:12 +0000";
};
width = 1867;
}
);
note = "\012		W\012  ";
unicode = 0057;
},
{
glyphname = X;
layers = (
{
layerId = "F37AB417-88C0-44AC-8CB6-E42EDC742658";
paths = (
{
closed = 1;
nodes = (
"759 688 LINE",
"159 0 LINE",
"439 16 LINE",
"872 574 LINE",
"1097 12 LINE",
"1395 120 LINE",
"1020 718 LINE",
"1600 1682 LINE",
"1311 1511 LINE",
"961 867 LINE",
"502 1706 LINE",
"135 1706 LINE"
);
}
);
userData = {
com.schriftgestaltung.Glyphs.lastChange = "2020-06-12 03:25:20 +0000";
};
width = 1725;
}
);
note = "\012		X\012  ";
unicode = 0058;
},
{
glyphname = Y;
lastChange = "2020-06-13 09:13:30 +0000";
layers = (
{
layerId = "F37AB417-88C0-44AC-8CB6-E42EDC742658";
paths = (
{
closed = 1;
nodes = (
"588 809 LINE",
"588 -2 LINE",
"752 0 LINE",
"752 788 LINE",
"1432 1688 LINE",
"1173 1688 LINE",
"662 1046 LINE",
"322 1710 LINE",
"149 1711 LINE"
);
}
);
userData = {
com.schriftgestaltung.Glyphs.lastChange = "2020-06-12 03:25:27 +0000";
};
width = 1549;
}
);
note = "\012		Y\012  ";
unicode = 0059;
},
{
glyphname = Z;
layers = (
{
layerId = "F37AB417-88C0-44AC-8CB6-E42EDC742658";
paths = (
{
closed = 1;
nodes = (
"18 1705 LINE",
"116 1581 LINE",
"998 1581 LINE",
"118 203 LINE",
"191 0 LINE",
"1380 178 LINE",
"1333 338 LINE",
"493 178 LINE",
"1406 1705 LINE"
);
}
);
userData = {
com.schriftgestaltung.Glyphs.lastChange = "2020-06-11 19:14:51 +0000";
};
width = 1506;
}
);
note = "\012		Z\012  ";
unicode = 005A;
},
{
glyphname = bracketleft;
layers = (
{
layerId = "F37AB417-88C0-44AC-8CB6-E42EDC742658";
paths = (
{
closed = 1;
nodes = (
"609 1555 LINE",
"182 1555 LINE",
"161 805 LINE SMOOTH",
"150 429 OFFCURVE",
"142 56 OFFCURVE",
"144 58 CURVE SMOOTH",
"146 60 OFFCURVE",
"253 57 OFFCURVE",
"359 52 CURVE SMOOTH",
"571 42 LINE",
"604 215 LINE",
"258 215 LINE",
"334 1328 LINE",
"642 1371 LINE"
);
}
);
width = 758;
}
);
note = "\012		bracketleft\012  ";
unicode = 005B;
},
{
glyphname = backslash;
layers = (
{
layerId = "F37AB417-88C0-44AC-8CB6-E42EDC742658";
paths = (
{
closed = 1;
nodes = (
"27 1601 LINE",
"350 -57 LINE",
"569 -29 LINE",
"531 254 LINE",
"203 1613 LINE"
);
}
);
width = 569;
}
);
note = "\012		backslash\012  ";
unicode = 005C;
},
{
glyphname = bracketright;
layers = (
{
layerId = "F37AB417-88C0-44AC-8CB6-E42EDC742658";
paths = (
{
closed = 1;
nodes = (
"69 1328 LINE",
"393 1323 LINE",
"388 188 LINE",
"107 177 LINE",
"109 117 LINE SMOOTH",
"110 86 OFFCURVE",
"112 56 OFFCURVE",
"112 53 CURVE SMOOTH",
"112 48 OFFCURVE",
"223 58 OFFCURVE",
"336 67 CURVE SMOOTH",
"561 85 LINE",
"539 1361 LINE",
"534 1426 LINE",
"85 1431 LINE"
);
}
);
width = 758;
}
);
note = "\012		bracketright\012  ";
unicode = 005D;
},
{
glyphname = underscore;
layers = (
{
layerId = "F37AB417-88C0-44AC-8CB6-E42EDC742658";
paths = (
{
closed = 1;
nodes = (
"81 -125 LINE",
"29 -223 LINE",
"1059 -199 LINE",
"1059 -88 LINE",
"815 -132 LINE"
);
}
);
userData = {
com.schriftgestaltung.Glyphs.lastChange = "2020-06-12 09:20:09 +0000";
};
width = 1051;
}
);
note = "\012		underscore\012  ";
unicode = 005F;
},
{
glyphname = quoteleft;
layers = (
{
layerId = "F37AB417-88C0-44AC-8CB6-E42EDC742658";
paths = (
{
closed = 1;
nodes = (
"481 1213 LINE",
"385 1243 LINE",
"363 1354 LINE",
"378 1428 LINE",
"422 1569 LINE",
"326 1495 LINE",
"267 1421 LINE",
"230 1332 LINE",
"267 1176 LINE",
"289 1065 LINE",
"415 1013 LINE",
"540 1161 LINE"
);
}
);
width = 557;
}
);
note = "\012		quoteleft\012  ";
unicode = 2018;
},
{
glyphname = a;
layers = (
{
layerId = "F37AB417-88C0-44AC-8CB6-E42EDC742658";
paths = (
{
closed = 1;
nodes = (
"252 200 LINE",
"347 562 LINE",
"676 687 LINE",
"858 200 LINE",
"1066 200 LINE",
"775 1302 LINE",
"392 1283 LINE",
"114 200 LINE"
);
},
{
closed = 1;
nodes = (
"462 989 LINE",
"622 1150 LINE",
"669 830 LINE",
"421 841 LINE"
);
}
);
userData = {
com.schriftgestaltung.Glyphs.lastChange = "2020-06-12 00:47:56 +0000";
};
width = 1177;
}
);
note = "\012		a\012  ";
unicode = 0061;
},
{
glyphname = b;
layers = (
{
layerId = "F37AB417-88C0-44AC-8CB6-E42EDC742658";
paths = (
{
closed = 1;
nodes = (
"699 264 LINE",
"811 402 LINE",
"811 627 LINE",
"755 729 LINE",
"454 794 LINE",
"729 851 LINE",
"801 1031 LINE",
"747 1214 LINE",
"509 1307 LINE",
"101 1296 LINE",
"75 322 LINE",
"380 228 LINE"
);
},
{
closed = 1;
nodes = (
"222 430 LINE",
"222 675 LINE",
"665 621 LINE",
"523 402 LINE"
);
},
{
closed = 1;
nodes = (
"252 1170 LINE",
"571 1156 LINE",
"615 992 LINE",
"252 967 LINE"
);
}
);
userData = {
com.schriftgestaltung.Glyphs.lastChange = "2020-06-12 00:46:55 +0000";
};
width = 903;
}
);
note = "\012		b\012  ";
unicode = 0062;
},
{
glyphname = c;
layers = (
{
layerId = "F37AB417-88C0-44AC-8CB6-E42EDC742658";
paths = (
{
closed = 1;
nodes = (
"907 1172 LINE",
"626 1381 LINE",
"399 1365 LINE",
"97 1247 LINE",
"77 722 LINE",
"119 385 LINE",
"416 216 LINE",
"770 237 LINE",
"910 328 LINE",
"929 576 LINE",
"811 566 LINE",
"788 437 LINE",
"662 385 LINE",
"244 601 LINE",
"244 1040 LINE",
"549 1259 LINE",
"760 1107 LINE"
);
}
);
userData = {
com.schriftgestaltung.Glyphs.lastChange = "2020-06-12 00:13:33 +0000";
};
width = 999;
}
);
note = "\012		c\012  ";
unicode = 0063;
},
{
glyphname = d;
layers = (
{
layerId = "F37AB417-88C0-44AC-8CB6-E42EDC742658";
paths = (
{
closed = 1;
nodes = (
"504 239 LINE",
"738 419 LINE",
"767 698 LINE",
"648 1145 LINE",
"430 1267 LINE",
"82 1266 LINE",
"77 184 LINE"
);
},
{
closed = 1;
nodes = (
"244 1124 LINE",
"562 917 LINE",
"547 497 LINE",
"215 336 LINE"
);
}
);
userData = {
com.schriftgestaltung.Glyphs.lastChange = "2020-06-12 00:42:18 +0000";
};
width = 836;
}
);
note = "\012		d\012  ";
unicode = 0064;
},
{
glyphname = e;
layers = (
{
layerId = "F37AB417-88C0-44AC-8CB6-E42EDC742658";
paths = (
{
closed = 1;
nodes = (
"82 1360 LINE",
"70 252 LINE",
"637 265 LINE",
"629 408 LINE",
"250 408 LINE",
"250 725 LINE",
"563 747 LINE",
"611 876 LINE",
"242 885 LINE",
"242 1232 LINE",
"611 1232 LINE",
"611 1314 LINE"
);
}
);
userData = {
com.schriftgestaltung.Glyphs.lastChange = "2020-06-12 00:13:57 +0000";
};
width = 725;
}
);
note = "\012		e\012  ";
unicode = 0065;
},
{
glyphname = f;
layers = (
{
layerId = "F37AB417-88C0-44AC-8CB6-E42EDC742658";
paths = (
{
closed = 1;
nodes = (
"262 211 LINE",
"260 564 LINE",
"427 601 LINE",
"432 752 LINE",
"255 763 LINE",
"244 1078 LINE",
"553 1026 LINE",
"618 1221 LINE",
"79 1360 LINE",
"86 217 LINE"
);
}
);
userData = {
com.schriftgestaltung.Glyphs.lastChange = "2020-06-12 00:14:04 +0000";
};
width = 659;
}
);
note = "\012		f\012  ";
unicode = 0066;
},
{
glyphname = g;
layers = (
{
layerId = "F37AB417-88C0-44AC-8CB6-E42EDC742658";
paths = (
{
closed = 1;
nodes = (
"881 1244 LINE",
"579 1353 LINE",
"434 1357 LINE",
"269 1310 LINE",
"139 1037 LINE",
"110 867 LINE",
"110 527 LINE",
"229 251 LINE",
"540 219 LINE",
"881 309 LINE",
"942 494 LINE",
"892 718 LINE",
"425 760 LINE",
"492 588 LINE",
"764 588 LINE",
"721 450 LINE",
"476 374 LINE",
"295 527 LINE",
"267 839 LINE",
"354 1161 LINE",
"573 1180 LINE",
"742 1081 LINE"
);
}
);
userData = {
com.schriftgestaltung.Glyphs.lastChange = "2020-06-12 00:14:11 +0000";
};
width = 1036;
}
);
note = "\012		g\012  ";
unicode = 0067;
},
{
glyphname = h;
layers = (
{
layerId = "F37AB417-88C0-44AC-8CB6-E42EDC742658";
paths = (
{
closed = 1;
nodes = (
"163 1361 LINE",
"174 174 LINE",
"316 111 LINE",
"311 647 LINE",
"623 769 LINE",
"649 124 LINE",
"745 119 LINE",
"719 1361 LINE",
"621 1355 LINE",
"622 919 LINE",
"305 879 LINE",
"305 1275 LINE"
);
}
);
userData = {
com.schriftgestaltung.Glyphs.lastChange = "2020-06-12 00:29:18 +0000";
};
width = 896;
}
);
note = "\012		h\012  ";
unicode = 0068;
},
{
glyphname = i;
layers = (
{
layerId = "F37AB417-88C0-44AC-8CB6-E42EDC742658";
paths = (
{
closed = 1;
nodes = (
"87 1338 LINE",
"87 300 LINE",
"275 185 LINE",
"296 1342 LINE"
);
}
);
userData = {
com.schriftgestaltung.Glyphs.lastChange = "2020-06-12 02:08:57 +0000";
};
width = 370;
}
);
note = "\012		i\012  ";
unicode = 0069;
},
{
glyphname = j;
layers = (
{
layerId = "F37AB417-88C0-44AC-8CB6-E42EDC742658";
paths = (
{
closed = 1;
nodes = (
"216 328 LINE",
"407 192 LINE",
"657 236 LINE",
"745 433 LINE",
"741 1322 LINE",
"592 1391 LINE",
"592 1035 LINE",
"592 570 LINE",
"552 381 LINE",
"431 341 LINE",
"305 636 LINE",
"164 690 LINE"
);
}
);
userData = {
com.schriftgestaltung.Glyphs.lastChange = "2020-06-12 00:14:36 +0000";
};
width = 925;
}
);
note = "\012		j\012  ";
unicode = 006A;
},
{
glyphname = k;
layers = (
{
layerId = "F37AB417-88C0-44AC-8CB6-E42EDC742658";
paths = (
{
closed = 1;
nodes = (
"120 1380 LINE",
"133 310 LINE",
"240 283 LINE",
"238 701 LINE",
"621 288 LINE",
"743 367 LINE",
"331 837 LINE",
"770 1366 LINE",
"547 1294 LINE",
"233 937 LINE",
"233 1367 LINE"
);
}
);
userData = {
com.schriftgestaltung.Glyphs.lastChange = "2020-06-11 20:55:40 +0000";
};
width = 844;
}
);
note = "\012		k\012  ";
unicode = 006B;
},
{
glyphname = l;
layers = (
{
layerId = "F37AB417-88C0-44AC-8CB6-E42EDC742658";
paths = (
{
closed = 1;
nodes = (
"153 1420 LINE",
"120 187 LINE",
"605 187 LINE",
"605 430 LINE",
"230 360 LINE",
"269 1373 LINE"
);
}
);
userData = {
com.schriftgestaltung.Glyphs.lastChange = "2020-06-12 00:14:53 +0000";
};
width = 718;
}
);
note = "\012		l\012  ";
unicode = 006C;
},
{
glyphname = m;
layers = (
{
layerId = "F37AB417-88C0-44AC-8CB6-E42EDC742658";
paths = (
{
closed = 1;
nodes = (
"335 243 LINE",
"339 1059 LINE",
"484 698 LINE",
"637 662 LINE",
"810 1104 LINE",
"820 243 LINE",
"975 243 LINE",
"943 1298 LINE",
"803 1367 LINE",
"544 887 LINE",
"347 1367 LINE",
"185 1367 LINE",
"200 319 LINE"
);
}
);
userData = {
com.schriftgestaltung.Glyphs.lastChange = "2020-06-12 00:14:59 +0000";
};
width = 1110;
}
);
note = "\012		m\012  ";
unicode = 006D;
},
{
glyphname = n;
layers = (
{
layerId = "F37AB417-88C0-44AC-8CB6-E42EDC742658";
paths = (
{
closed = 1;
nodes = (
"146 1284 LINE",
"114 279 LINE",
"236 272 LINE",
"280 1154 LINE",
"716 278 LINE",
"855 278 LINE",
"879 1311 LINE",
"744 1356 LINE",
"680 603 LINE",
"327 1349 LINE"
);
}
);
userData = {
com.schriftgestaltung.Glyphs.lastChange = "2020-06-12 00:15:08 +0000";
};
width = 1066;
}
);
note = "\012		n\012  ";
unicode = 006E;
},
{
glyphname = o;
layers = (
{
layerId = "F37AB417-88C0-44AC-8CB6-E42EDC742658";
paths = (
{
closed = 1;
nodes = (
"789 180 LINE",
"1085 385 LINE",
"1153 706 LINE",
"1109 1087 LINE",
"799 1273 LINE",
"442 1273 LINE",
"153 1106 LINE",
"72 710 LINE",
"210 340 LINE",
"469 180 LINE"
);
},
{
closed = 1;
nodes = (
"833 1115 LINE",
"964 878 LINE",
"985 563 LINE",
"767 340 LINE",
"430 340 LINE",
"279 561 LINE",
"279 878 LINE",
"407 1121 LINE"
);
}
);
userData = {
com.schriftgestaltung.Glyphs.lastChange = "2020-06-12 00:39:37 +0000";
};
width = 1243;
}
);
note = "\012		o\012  ";
unicode = 006F;
},
{
glyphname = p;
layers = (
{
layerId = "F37AB417-88C0-44AC-8CB6-E42EDC742658";
paths = (
{
closed = 1;
nodes = (
"391 143 LINE",
"398 662 LINE",
"665 667 LINE",
"854 849 LINE",
"854 1198 LINE",
"673 1404 LINE",
"232 1378 LINE",
"243 1050 LINE",
"237 623 LINE",
"229 136 LINE"
);
},
{
closed = 1;
nodes = (
"343 1224 LINE",
"574 1231 LINE",
"723 1066 LINE",
"612 888 LINE",
"375 852 LINE"
);
}
);
userData = {
com.schriftgestaltung.Glyphs.lastChange = "2020-06-12 00:10:37 +0000";
};
width = 1010;
}
);
note = "\012		p\012  ";
unicode = 0070;
},
{
glyphname = q;
layers = (
{
layerId = "F37AB417-88C0-44AC-8CB6-E42EDC742658";
paths = (
{
closed = 1;
nodes = (
"790 170 LINE",
"946 276 LINE",
"1021 170 LINE",
"1165 170 LINE",
"1080 347 LINE",
"1150 380 LINE",
"1220 707 LINE",
"1175 1096 LINE",
"858 1286 LINE",
"493 1286 LINE",
"197 1115 LINE",
"115 711 LINE",
"257 333 LINE",
"522 170 LINE"
);
},
{
closed = 1;
nodes = (
"894 1125 LINE",
"1027 883 LINE",
"1047 561 LINE",
"826 334 LINE",
"482 334 LINE",
"326 560 LINE",
"326 883 LINE",
"459 1132 LINE"
);
}
);
userData = {
com.schriftgestaltung.Glyphs.lastChange = "2020-06-12 00:39:44 +0000";
};
width = 1347;
}
);
note = "\012		q\012  ";
unicode = 0071;
},
{
glyphname = r;
layers = (
{
layerId = "F37AB417-88C0-44AC-8CB6-E42EDC742658";
paths = (
{
closed = 1;
nodes = (
"284 193 LINE",
"342 680 LINE",
"572 204 LINE",
"721 249 LINE",
"461 727 LINE",
"693 873 LINE",
"693 1239 LINE",
"441 1388 LINE",
"166 1377 LINE",
"162 830 LINE",
"162 204 LINE"
);
},
{
closed = 1;
nodes = (
"324 1221 LINE",
"533 1182 LINE",
"528 979 LINE",
"326 872 LINE"
);
}
);
userData = {
com.schriftgestaltung.Glyphs.lastChange = "2020-06-12 00:11:34 +0000";
};
width = 859;
}
);
note = "\012		r\012  ";
unicode = 0072;
},
{
glyphname = s;
layers = (
{
layerId = "F37AB417-88C0-44AC-8CB6-E42EDC742658";
paths = (
{
closed = 1;
nodes = (
"773 1277 LINE",
"614 1391 LINE",
"320 1391 LINE",
"115 1225 LINE",
"115 1018 LINE",
"308 832 LINE",
"505 791 LINE",
"670 668 LINE",
"682 492 LINE",
"590 372 LINE",
"333 372 LINE",
"154 464 LINE",
"147 264 LINE",
"417 182 LINE",
"667 215 LINE",
"810 338 LINE",
"833 577 LINE",
"797 737 LINE",
"676 880 LINE",
"352 972 LINE",
"263 1105 LINE",
"352 1283 LINE",
"567 1283 LINE",
"650 1188 LINE"
);
}
);
userData = {
com.schriftgestaltung.Glyphs.lastChange = "2020-06-12 00:11:45 +0000";
};
width = 955;
}
);
note = "\012		s\012  ";
unicode = 0073;
},
{
glyphname = t;
layers = (
{
layerId = "F37AB417-88C0-44AC-8CB6-E42EDC742658";
paths = (
{
closed = 1;
nodes = (
"117 1195 LINE",
"387 1199 LINE",
"404 146 LINE",
"515 165 LINE",
"515 1202 LINE",
"831 1202 LINE",
"865 1380 LINE",
"117 1371 LINE"
);
}
);
userData = {
com.schriftgestaltung.Glyphs.lastChange = "2020-06-12 00:12:00 +0000";
};
width = 962;
}
);
note = "\012		t\012  ";
unicode = 0074;
},
{
glyphname = u;
layers = (
{
layerId = "F37AB417-88C0-44AC-8CB6-E42EDC742658";
paths = (
{
closed = 1;
nodes = (
"412 1331 LINE",
"306 1331 LINE",
"306 819 LINE",
"313 589 LINE",
"470 256 LINE",
"662 219 LINE",
"859 303 LINE",
"936 586 LINE",
"926 1326 LINE",
"834 1326 LINE",
"846 539 LINE",
"644 433 LINE",
"412 539 LINE"
);
}
);
userData = {
com.schriftgestaltung.Glyphs.lastChange = "2020-06-12 00:12:12 +0000";
};
width = 1177;
}
);
note = "\012		u\012  ";
unicode = 0075;
},
{
glyphname = v;
layers = (
{
layerId = "F37AB417-88C0-44AC-8CB6-E42EDC742658";
paths = (
{
closed = 1;
nodes = (
"265 1341 LINE",
"461 408 LINE",
"583 287 LINE",
"805 1232 LINE",
"692 1314 LINE",
"512 505 LINE",
"362 1292 LINE"
);
}
);
userData = {
com.schriftgestaltung.Glyphs.lastChange = "2020-06-12 00:12:27 +0000";
};
width = 1058;
}
);
note = "\012		v\012  ";
unicode = 0076;
},
{
glyphname = w;
layers = (
{
layerId = "F37AB417-88C0-44AC-8CB6-E42EDC742658";
paths = (
{
closed = 1;
nodes = (
"667 161 LINE",
"880 154 LINE",
"922 788 LINE",
"1047 239 LINE",
"1275 157 LINE",
"1335 1320 LINE",
"1236 1364 LINE",
"1201 346 LINE",
"961 1105 LINE",
"816 1206 LINE",
"729 336 LINE",
"484 1387 LINE",
"380 1387 LINE"
);
}
);
userData = {
com.schriftgestaltung.Glyphs.lastChange = "2020-06-12 00:12:40 +0000";
};
width = 1673;
}
);
note = "\012		w\012  ";
unicode = 0077;
},
{
glyphname = x;
layers = (
{
layerId = "F37AB417-88C0-44AC-8CB6-E42EDC742658";
paths = (
{
closed = 1;
nodes = (
"574 661 LINE",
"182 212 LINE",
"365 222 LINE",
"648 587 LINE",
"794 220 LINE",
"990 290 LINE",
"744 680 LINE",
"1122 1309 LINE",
"934 1198 LINE",
"706 777 LINE",
"406 1325 LINE",
"167 1325 LINE"
);
}
);
userData = {
com.schriftgestaltung.Glyphs.lastChange = "2020-06-12 00:12:53 +0000";
};
width = 1295;
}
);
note = "\012		x\012  ";
unicode = 0078;
},
{
glyphname = y;
layers = (
{
layerId = "F37AB417-88C0-44AC-8CB6-E42EDC742658";
paths = (
{
closed = 1;
nodes = (
"422 720 LINE",
"422 153 LINE",
"535 155 LINE",
"535 705 LINE",
"1011 1335 LINE",
"830 1335 LINE",
"473 885 LINE",
"235 1349 LINE",
"114 1350 LINE"
);
}
);
userData = {
com.schriftgestaltung.Glyphs.lastChange = "2020-06-12 00:58:23 +0000";
};
width = 1110;
}
);
note = "\012		y\012  ";
unicode = 0079;
},
{
glyphname = z;
layers = (
{
layerId = "F37AB417-88C0-44AC-8CB6-E42EDC742658";
paths = (
{
closed = 1;
nodes = (
"203 1361 LINE",
"271 1274 LINE",
"888 1274 LINE",
"272 312 LINE",
"324 169 LINE",
"1154 294 LINE",
"1122 406 LINE",
"535 294 LINE",
"1172 1361 LINE"
);
}
);
userData = {
com.schriftgestaltung.Glyphs.lastChange = "2020-06-12 00:13:22 +0000";
};
width = 1377;
}
);
note = "\012		z\012  ";
unicode = 007A;
},
{
glyphname = braceleft;
layers = (
{
layerId = "F37AB417-88C0-44AC-8CB6-E42EDC742658";
paths = (
{
closed = 1;
nodes = (
"821 1821 LINE",
"713 1808 LINE",
"599 1726 LINE",
"536 1618 LINE",
"497 1422 LINE",
"484 1282 LINE",
"484 1124 LINE",
"447 984 LINE",
"402 915 LINE",
"307 896 LINE",
"193 883 LINE",
"117 896 LINE",
"117 801 LINE",
"244 794 LINE",
"377 757 LINE",
"428 662 LINE",
"460 490 LINE",
"484 364 LINE",
"466 192 LINE",
"573 60 LINE",
"719 9 LINE",
"827 34 LINE",
"877 123 LINE",
"764 97 LINE",
"637 129 LINE",
"579 250 LINE",
"561 522 LINE",
"561 699 LINE",
"516 845 LINE",
"618 896 LINE",
"674 1156 LINE",
"681 1409 LINE",
"713 1599 LINE",
"833 1701 LINE",
"896 1688 LINE",
"916 1808 LINE"
);
}
);
width = 1010;
}
);
note = "\012		braceleft\012  ";
unicode = 007B;
},
{
glyphname = bar;
layers = (
{
layerId = "F37AB417-88C0-44AC-8CB6-E42EDC742658";
paths = (
{
closed = 1;
nodes = (
"248 1544 LINE",
"225 50 LINE",
"341 21 LINE",
"410 50 LINE",
"416 1787 LINE",
"288 1804 LINE",
"178 1764 LINE"
);
}
);
width = 548;
}
);
note = "\012		bar\012  ";
unicode = 007C;
},
{
glyphname = braceright;
layers = (
{
layerId = "F37AB417-88C0-44AC-8CB6-E42EDC742658";
paths = (
{
closed = 1;
nodes = (
"143 1790 LINE",
"162 1673 LINE",
"224 1685 LINE",
"341 1586 LINE",
"371 1401 LINE",
"378 1154 LINE",
"433 901 LINE",
"532 851 LINE",
"489 710 LINE",
"489 537 LINE",
"471 272 LINE",
"415 154 LINE",
"291 123 LINE",
"181 148 LINE",
"230 62 LINE",
"335 38 LINE",
"477 87 LINE",
"582 216 LINE",
"563 383 LINE",
"587 506 LINE",
"618 673 LINE",
"668 766 LINE",
"798 802 LINE",
"921 809 LINE",
"921 901 LINE",
"847 889 LINE",
"736 901 LINE",
"643 920 LINE",
"600 987 LINE",
"563 1123 LINE",
"563 1278 LINE",
"551 1413 LINE",
"513 1604 LINE",
"452 1709 LINE",
"341 1790 LINE",
"236 1802 LINE"
);
}
);
width = 1030;
}
);
note = "\012		braceright\012  ";
unicode = 007D;
},
{
glyphname = asciitilde;
layers = (
{
layerId = "F37AB417-88C0-44AC-8CB6-E42EDC742658";
paths = (
{
closed = 1;
nodes = (
"119 1036 LINE",
"97 859 LINE",
"274 910 LINE",
"497 940 LINE",
"800 888 LINE",
"941 814 LINE",
"1140 896 LINE",
"1118 1073 LINE",
"1000 970 LINE",
"867 1036 LINE",
"667 1073 LINE",
"474 1036 LINE",
"208 984 LINE"
);
}
);
width = 1266;
}
);
note = "\012		asciitilde\012  ";
unicode = 007E;
},
{
glyphname = exclamdown;
lastChange = "2020-06-12 09:54:37 +0000";
layers = (
{
layerId = "F37AB417-88C0-44AC-8CB6-E42EDC742658";
paths = (
{
closed = 1;
nodes = (
"452 829 LINE",
"444 1466 LINE",
"392 1680 LINE",
"318 1747 LINE",
"237 1710 LINE",
"252 785 LINE",
"296 459 LINE",
"400 355 LINE",
"444 429 LINE"
);
},
{
closed = 1;
nodes = (
"481 67 LINE",
"489 141 LINE",
"415 244 LINE",
"319 244 LINE",
"237 178 LINE",
"230 59 LINE",
"289 -7 LINE",
"400 15 LINE"
);
}
);
width = 672;
}
);
note = "\012		exclam\012  ";
unicode = 00A1;
},
{
glyphname = cent;
lastChange = "2020-06-13 09:18:16 +0000";
layers = (
{
layerId = "F37AB417-88C0-44AC-8CB6-E42EDC742658";
paths = (
{
closed = 1;
nodes = (
"957 1172 LINE",
"676 1381 LINE",
"449 1365 LINE",
"147 1247 LINE",
"127 722 LINE",
"169 385 LINE",
"466 216 LINE",
"820 237 LINE",
"960 328 LINE",
"979 576 LINE",
"861 566 LINE",
"838 437 LINE",
"712 385 LINE",
"294 601 LINE",
"294 1040 LINE",
"599 1259 LINE",
"810 1107 LINE"
);
},
{
closed = 1;
nodes = (
"533 22 LINE",
"699 39 LINE",
"577 1491 LINE",
"460 1491 LINE"
);
}
);
width = 1139;
}
);
note = "\012		cent\012  ";
unicode = 00A2;
},
{
glyphname = sterling;
lastChange = "2020-06-13 09:45:47 +0000";
layers = (
{
layerId = "F37AB417-88C0-44AC-8CB6-E42EDC742658";
paths = (
{
closed = 1;
nodes = (
"158 138 LINE",
"318 193 OFFCURVE",
"162 203 OFFCURVE",
"752 117 CURVE",
"895 158 LINE",
"1023 229 LINE",
"987 363 LINE",
"764 258 LINE",
"564 292 LINE",
"465 317 LINE",
"609 579 LINE",
"548 733 LINE",
"447 896 LINE",
"318 1005 LINE",
"340 1189 LINE",
"465 1307 LINE",
"723 1346 LINE",
"789 1253 LINE",
"953 1295 LINE",
"895 1444 LINE",
"695 1475 LINE",
"470 1444 LINE",
"305 1355 LINE",
"221 1228 LINE",
"167 1049 LINE",
"225 842 LINE",
"401 747 LINE",
"452 552 LINE",
"369 410 LINE",
"258 370 LINE",
"116 292 LINE",
"34 229 LINE",
"55 103 LINE"
);
},
{
closed = 1;
nodes = (
"764 722 LINE",
"755 844 LINE",
"32 862 LINE",
"32 722 LINE"
);
}
);
width = 1014;
}
);
note = "\012		sterling\012  ";
unicode = 00A3;
},
{
glyphname = fraction;
layers = (
{
layerId = "F37AB417-88C0-44AC-8CB6-E42EDC742658";
paths = (
{
closed = 1;
nodes = (
"988 1488 LINE",
"95 43 LINE",
"293 7 LINE",
"1124 1491 LINE"
);
}
);
userData = {
com.schriftgestaltung.Glyphs.lastChange = "2020-06-11 20:26:43 +0000";
};
width = 1325;
}
);
note = "\012		fraction\012  ";
unicode = 2044;
},
{
glyphname = yen;
lastChange = "2020-06-13 09:16:29 +0000";
layers = (
{
layerId = "F37AB417-88C0-44AC-8CB6-E42EDC742658";
paths = (
{
closed = 1;
nodes = (
"532 705 LINE",
"532 -2 LINE",
"675 0 LINE",
"675 687 LINE",
"1267 1471 LINE",
"1041 1471 LINE",
"596 911 LINE",
"300 1490 LINE",
"149 1491 LINE"
);
},
{
closed = 1;
nodes = (
"1067 452 LINE",
"1067 593 LINE",
"171 593 LINE",
"195 452 LINE"
);
},
{
closed = 1;
nodes = (
"1059 706 LINE",
"1059 867 LINE",
"157 867 LINE",
"174 706 LINE"
);
}
);
width = 1262;
}
);
note = "\012		yen\012  ";
unicode = 00A5;
},
{
glyphname = quotesingle;
layers = (
{
layerId = "F37AB417-88C0-44AC-8CB6-E42EDC742658";
paths = (
{
closed = 1;
nodes = (
"252 1214 LINE",
"326 1355 LINE",
"355 1466 LINE",
"377 1584 LINE",
"318 1665 LINE",
"192 1673 LINE",
"133 1540 LINE",
"163 1421 LINE",
"192 1266 LINE",
"170 1118 LINE"
);
}
);
width = 346;
}
);
note = "\012		quotesingle\012  ";
unicode = 0027;
},
{
glyphname = quotedblleft;
layers = (
{
layerId = "F37AB417-88C0-44AC-8CB6-E42EDC742658";
paths = (
{
closed = 1;
nodes = (
"864 1286 LINE",
"768 1316 LINE",
"746 1427 LINE",
"761 1501 LINE",
"805 1642 LINE",
"709 1568 LINE",
"650 1494 LINE",
"613 1405 LINE",
"650 1249 LINE",
"672 1138 LINE",
"798 1086 LINE",
"923 1234 LINE"
);
},
{
closed = 1;
nodes = (
"487 1256 LINE",
"391 1286 LINE",
"369 1397 LINE",
"384 1471 LINE",
"428 1612 LINE",
"332 1538 LINE",
"273 1464 LINE",
"236 1375 LINE",
"273 1219 LINE",
"295 1108 LINE",
"421 1056 LINE",
"546 1204 LINE"
);
}
);
width = 1007;
}
);
note = "\012		quotedblleft\012  ";
unicode = 201C;
},
{
glyphname = endash;
layers = (
{
layerId = "F37AB417-88C0-44AC-8CB6-E42EDC742658";
paths = (
{
closed = 1;
nodes = (
"92 820 LINE",
"995 755 LINE",
"1022 934 LINE",
"952 988 LINE",
"108 1020 LINE"
);
}
);
width = 1125;
}
);
note = "\012		endash\012  ";
unicode = 2013;
},
{
glyphname = paragraph;
layers = (
{
layerId = "F37AB417-88C0-44AC-8CB6-E42EDC742658";
paths = (
{
closed = 1;
nodes = (
"652 23 LINE",
"644 1310 LINE",
"778 1333 LINE",
"785 1444 LINE",
"334 1444 LINE",
"141 1392 LINE",
"67 1125 LINE",
"112 866 LINE",
"178 770 LINE",
"319 741 LINE",
"282 -7 LINE",
"378 -7 LINE",
"393 1325 LINE",
"570 1348 LINE",
"533 23 LINE"
);
}
);
width = 1024;
}
);
note = "\012		paragraph\012  ";
unicode = 00B6;
},
{
glyphname = bullet;
layers = (
{
layerId = "F37AB417-88C0-44AC-8CB6-E42EDC742658";
paths = (
{
closed = 1;
nodes = (
"635 1012 LINE",
"494 1058 LINE",
"393 1031 LINE",
"307 979 LINE",
"253 873 LINE",
"220 767 LINE",
"200 676 LINE",
"233 577 LINE",
"293 510 LINE",
"381 438 LINE",
"494 398 LINE",
"628 385 LINE",
"729 424 LINE",
"802 510 LINE",
"863 570 LINE",
"896 682 LINE",
"896 794 LINE",
"842 886 LINE",
"802 952 LINE",
"695 1005 LINE"
);
}
);
width = 1024;
}
);
note = "\012		bullet\012  ";
unicode = 2022;
},
{
glyphname = quotesinglbase;
layers = (
{
layerId = "F37AB417-88C0-44AC-8CB6-E42EDC742658";
paths = (
{
closed = 1;
nodes = (
"154 110 LINE",
"250 80 LINE",
"272 -31 LINE",
"257 -105 LINE",
"213 -246 LINE",
"309 -172 LINE",
"368 -98 LINE",
"405 -9 LINE",
"368 147 LINE",
"346 258 LINE",
"220 310 LINE",
"95 162 LINE"
);
}
);
width = 557;
}
);
note = "\012		quotesinglbase\012  ";
unicode = 201A;
},
{
glyphname = quotedblbase;
layers = (
{
layerId = "F37AB417-88C0-44AC-8CB6-E42EDC742658";
paths = (
{
closed = 1;
nodes = (
"407 235 LINE",
"503 205 LINE",
"525 94 LINE",
"510 20 LINE",
"466 -121 LINE",
"562 -47 LINE",
"621 27 LINE",
"658 116 LINE",
"621 272 LINE",
"599 383 LINE",
"473 435 LINE",
"348 287 LINE"
);
},
{
closed = 1;
nodes = (
"59 191 LINE",
"155 161 LINE",
"177 50 LINE",
"162 -24 LINE",
"118 -165 LINE",
"214 -91 LINE",
"273 -17 LINE",
"310 72 LINE",
"273 228 LINE",
"251 339 LINE",
"125 391 LINE",
"0 243 LINE"
);
}
);
width = 910;
}
);
note = "\012		quotedblbase\012  ";
unicode = 201E;
},
{
glyphname = quotedblright;
layers = (
{
layerId = "F37AB417-88C0-44AC-8CB6-E42EDC742658";
paths = (
{
closed = 1;
nodes = (
"510 1419 LINE",
"606 1389 LINE",
"628 1278 LINE",
"613 1204 LINE",
"569 1063 LINE",
"665 1137 LINE",
"724 1211 LINE",
"761 1300 LINE",
"724 1456 LINE",
"702 1567 LINE",
"576 1619 LINE",
"451 1471 LINE"
);
},
{
closed = 1;
nodes = (
"162 1375 LINE",
"258 1345 LINE",
"280 1234 LINE",
"265 1160 LINE",
"221 1019 LINE",
"317 1093 LINE",
"376 1167 LINE",
"413 1256 LINE",
"376 1412 LINE",
"354 1523 LINE",
"228 1575 LINE",
"103 1427 LINE"
);
}
);
width = 910;
}
);
note = "\012		quotedblright\012  ";
unicode = 201D;
},
{
glyphname = ellipsis;
layers = (
{
layerId = "F37AB417-88C0-44AC-8CB6-E42EDC742658";
paths = (
{
closed = 1;
nodes = (
"264 289 LINE",
"198 311 LINE",
"150 298 LINE",
"109 274 LINE",
"84 224 LINE",
"68 174 LINE",
"59 130 LINE",
"75 84 LINE",
"103 52 LINE",
"144 18 LINE",
"198 0 LINE",
"261 -7 LINE",
"309 12 LINE",
"343 52 LINE",
"372 80 LINE",
"388 133 LINE",
"388 186 LINE",
"362 230 LINE",
"343 261 LINE",
"293 286 LINE"
);
},
{
closed = 1;
nodes = (
"952 304 LINE",
"886 326 LINE",
"838 313 LINE",
"797 289 LINE",
"772 239 LINE",
"756 189 LINE",
"747 145 LINE",
"763 99 LINE",
"791 67 LINE",
"832 33 LINE",
"886 14 LINE",
"949 8 LINE",
"997 27 LINE",
"1031 67 LINE",
"1060 95 LINE",
"1076 148 LINE",
"1076 201 LINE",
"1050 245 LINE",
"1031 276 LINE",
"981 301 LINE"
);
},
{
closed = 1;
nodes = (
"1603 296 LINE",
"1537 318 LINE",
"1489 305 LINE",
"1448 281 LINE",
"1423 231 LINE",
"1407 181 LINE",
"1398 137 LINE",
"1414 91 LINE",
"1442 59 LINE",
"1483 25 LINE",
"1537 6 LINE",
"1600 0 LINE",
"1648 19 LINE",
"1682 59 LINE",
"1711 87 LINE",
"1727 140 LINE",
"1727 193 LINE",
"1701 237 LINE",
"1682 268 LINE",
"1632 293 LINE"
);
}
);
width = 2048;
}
);
note = "\012		ellipsis\012  ";
unicode = 2026;
},
{
glyphname = questiondown;
layers = (
{
layerId = "F37AB417-88C0-44AC-8CB6-E42EDC742658";
paths = (
{
closed = 1;
nodes = (
"844 1718 LINE",
"748 1832 LINE",
"604 1846 LINE",
"511 1725 LINE",
"519 1595 LINE",
"640 1521 LINE",
"790 1576 LINE"
);
},
{
closed = 1;
nodes = (
"769 282 LINE",
"660 183 LINE",
"544 140 LINE",
"318 203 LINE",
"233 430 LINE",
"265 642 LINE",
"480 795 LINE",
"645 999 LINE",
"756 1284 LINE",
"795 1504 LINE",
"510 1432 LINE",
"523 1202 LINE",
"455 1056 LINE",
"290 943 LINE",
"79 745 LINE",
"28 469 LINE",
"109 184 LINE",
"337 4 LINE",
"598 -28 LINE",
"818 13 LINE",
"952 159 LINE",
"960 315 LINE",
"804 395 LINE"
);
}
);
width = 1036;
}
);
note = "\012		questiondown\012  ";
unicode = 00BF;
},
{
glyphname = grave;
layers = (
{
layerId = "F37AB417-88C0-44AC-8CB6-E42EDC742658";
paths = (
{
closed = 1;
nodes = (
"445 1293 LINE",
"227 1568 LINE",
"468 1570 LINE",
"538 1293 LINE"
);
}
);
userData = {
com.schriftgestaltung.Glyphs.lastChange = "2020-06-12 02:03:40 +0000";
};
width = 1024;
}
);
note = "\012		grave\012  ";
unicode = 0060;
},
{
glyphname = acute;
layers = (
{
layerId = "F37AB417-88C0-44AC-8CB6-E42EDC742658";
paths = (
{
closed = 1;
nodes = (
"602 1283 LINE",
"821 1558 LINE",
"578 1560 LINE",
"508 1283 LINE"
);
}
);
userData = {
com.schriftgestaltung.Glyphs.lastChange = "2020-06-12 02:02:48 +0000";
};
width = 1024;
}
);
note = "\012		acute\012  ";
unicode = 00B4;
},
{
glyphname = tilde;
layers = (
{
layerId = "F37AB417-88C0-44AC-8CB6-E42EDC742658";
paths = (
{
closed = 1;
nodes = (
"251 1497 LINE",
"251 1340 LINE",
"503 1238 LINE",
"714 1340 LINE",
"1032 1245 LINE",
"1049 1387 LINE",
"724 1516 LINE",
"479 1397 LINE"
);
}
);
userData = {
com.schriftgestaltung.Glyphs.lastChange = "2020-06-12 02:04:22 +0000";
};
width = 1229;
}
);
note = "\012		tilde\012  ";
unicode = 02DC;
},
{
glyphname = dotaccent;
layers = (
{
layerId = "F37AB417-88C0-44AC-8CB6-E42EDC742658";
paths = (
{
closed = 1;
nodes = (
"652 1177 LINE",
"660 1251 LINE",
"586 1354 LINE",
"490 1354 LINE",
"408 1288 LINE",
"401 1169 LINE",
"460 1103 LINE",
"571 1125 LINE"
);
}
);
width = 1024;
}
);
note = "\012		dotaccent\012  ";
unicode = 02D9;
},
{
glyphname = dieresis;
layers = (
{
layerId = "F37AB417-88C0-44AC-8CB6-E42EDC742658";
paths = (
{
closed = 1;
nodes = (
"910 1244 LINE",
"918 1318 LINE",
"844 1421 LINE",
"748 1421 LINE",
"666 1355 LINE",
"659 1236 LINE",
"718 1170 LINE",
"829 1192 LINE"
);
},
{
closed = 1;
nodes = (
"421 1251 LINE",
"429 1325 LINE",
"355 1428 LINE",
"259 1428 LINE",
"177 1362 LINE",
"170 1243 LINE",
"229 1177 LINE",
"340 1199 LINE"
);
}
);
width = 1024;
}
);
note = "\012		dieresis\012  ";
unicode = 00A8;
},
{
glyphname = ring;
layers = (
{
layerId = "F37AB417-88C0-44AC-8CB6-E42EDC742658";
paths = (
{
closed = 1;
nodes = (
"592 511 LINE",
"629 577 LINE",
"644 666 LINE",
"629 755 LINE",
"511 866 LINE",
"392 859 LINE",
"274 740 LINE",
"252 511 LINE",
"452 452 LINE"
);
}
);
width = 1024;
}
);
note = "\012		ring\012  ";
unicode = 02DA;
},
{
glyphname = hungarumlaut;
layers = (
{
layerId = "F37AB417-88C0-44AC-8CB6-E42EDC742658";
paths = (
{
closed = 1;
nodes = (
"437 1236 LINE",
"451 1303 LINE",
"444 1362 LINE",
"326 1362 LINE",
"237 1214 LINE",
"192 1014 LINE",
"392 1199 LINE"
);
},
{
closed = 1;
nodes = (
"792 1236 LINE",
"806 1303 LINE",
"799 1362 LINE",
"681 1362 LINE",
"592 1214 LINE",
"547 1014 LINE",
"747 1199 LINE"
);
}
);
width = 1024;
}
);
note = "\012		hungarumlaut\012  ";
unicode = 02DD;
},
{
glyphname = emdash;
layers = (
{
layerId = "F37AB417-88C0-44AC-8CB6-E42EDC742658";
paths = (
{
closed = 1;
nodes = (
"97 215 LINE",
"65 42 LINE",
"1892 58 LINE",
"1967 96 LINE",
"1940 263 LINE"
);
}
);
width = 2048;
}
);
note = "\012		emdash\012  ";
unicode = 2014;
},
{
glyphname = AE;
layers = (
{
layerId = "F37AB417-88C0-44AC-8CB6-E42EDC742658";
paths = (
{
closed = 1;
nodes = (
"236 0 LINE",
"381 560 LINE",
"889 752 LINE",
"1022 -10 LINE",
"1493 0 LINE",
"1022 -10 LINE",
"1043 1703 LINE",
"450 1674 LINE",
"21 0 LINE"
);
},
{
closed = 1;
nodes = (
"558 1219 LINE",
"806 1468 LINE",
"878 972 LINE",
"495 992 LINE"
);
},
{
closed = 1;
nodes = (
"1041 1696 LINE",
"1022 -10 LINE",
"1896 10 LINE",
"1883 230 LINE",
"1299 230 LINE",
"1299 718 LINE",
"1782 752 LINE",
"1854 952 LINE",
"1286 965 LINE",
"1286 1497 LINE",
"1854 1497 LINE",
"1854 1625 LINE"
);
}
);
userData = {
com.schriftgestaltung.Glyphs.lastChange = "2020-06-12 00:55:14 +0000";
};
width = 1745;
}
);
note = "\012		AE\012  ";
unicode = 00C6;
},
{
glyphname = ordfeminine;
layers = (
{
layerId = "F37AB417-88C0-44AC-8CB6-E42EDC742658";
paths = (
{
closed = 1;
nodes = (
"68 984 LINE",
"41 859 LINE",
"603 838 LINE",
"625 989 LINE"
);
},
{
closed = 1;
nodes = (
"184 1058 LINE",
"232 1218 LINE",
"399 1275 LINE",
"492 1058 LINE",
"597 1058 LINE",
"449 1548 LINE",
"255 1539 LINE",
"114 1058 LINE"
);
},
{
closed = 1;
nodes = (
"291 1409 LINE",
"372 1481 LINE",
"396 1338 LINE",
"270 1343 LINE"
);
}
);
userData = {
com.schriftgestaltung.Glyphs.lastChange = "2020-06-12 02:22:44 +0000";
};
width = 662;
}
);
note = "\012		ordfeminine\012  ";
unicode = 00AA;
},
{
glyphname = Oslash;
layers = (
{
layerId = "F37AB417-88C0-44AC-8CB6-E42EDC742658";
paths = (
{
closed = 1;
nodes = (
"684 1389 LINE",
"838 1830 LINE",
"763 1905 LINE",
"599 1476 LINE",
"513 1564 LINE",
"305 1559 LINE",
"193 1443 LINE",
"56 1089 LINE",
"72 603 LINE",
"172 360 LINE",
"60 66 LINE",
"193 -17 LINE",
"286 249 LINE",
"347 216 LINE",
"551 199 LINE",
"701 353 LINE",
"742 985 LINE",
"692 1380 LINE"
);
},
{
closed = 1;
nodes = (
"259 688 LINE",
"217 813 LINE",
"213 1004 LINE",
"355 1350 LINE",
"430 1379 LINE",
"492 1300 LINE"
);
},
{
closed = 1;
nodes = (
"495 435 LINE",
"395 422 LINE",
"350 555 LINE",
"578 1200 LINE",
"599 1013 LINE",
"594 893 OFFCURVE",
"583 693 OFFCURVE",
"578 605 CURVE"
);
}
);
width = 782;
}
);
note = "\012		Oslash\012  ";
unicode = 00D8;
},
{
glyphname = ordmasculine;
layers = (
{
layerId = "F37AB417-88C0-44AC-8CB6-E42EDC742658";
paths = (
{
closed = 1;
nodes = (
"73 1058 LINE",
"46 933 LINE",
"608 912 LINE",
"630 1063 LINE"
);
},
{
closed = 1;
nodes = (
"459 1735 LINE",
"279 1715 LINE",
"103 1595 LINE",
"75 1445 LINE",
"112 1240 LINE",
"283 1150 LINE",
"496 1150 LINE",
"611 1330 LINE",
"625 1590 LINE"
);
},
{
closed = 1;
nodes = (
"433 1308 LINE",
"225 1348 LINE",
"220 1513 LINE",
"283 1570 LINE",
"427 1595 LINE",
"521 1463 LINE"
);
}
);
width = 674;
}
);
note = "\012		ordmasculine\012  ";
unicode = 00BA;
},
{
glyphname = ae;
layers = (
{
layerId = "F37AB417-88C0-44AC-8CB6-E42EDC742658";
paths = (
{
closed = 1;
nodes = (
"201 216 LINE",
"288 554 LINE",
"595 670 LINE",
"676 210 LINE",
"960 216 LINE",
"676 210 LINE",
"688 1245 LINE",
"330 1227 LINE",
"71 216 LINE"
);
},
{
closed = 1;
nodes = (
"395 952 LINE",
"545 1103 LINE",
"589 803 LINE",
"357 815 LINE"
);
},
{
closed = 1;
nodes = (
"687 1240 LINE",
"676 210 LINE",
"1203 222 LINE",
"1196 355 LINE",
"843 355 LINE",
"843 650 LINE",
"1135 670 LINE",
"1178 791 LINE",
"835 799 LINE",
"835 1120 LINE",
"1178 1120 LINE",
"1178 1197 LINE"
);
}
);
userData = {
com.schriftgestaltung.Glyphs.lastChange = "2020-06-12 00:56:21 +0000";
};
width = 1293;
}
);
note = "\012		ae\012  ";
unicode = 00E6;
},
{
glyphname = oslash;
layers = (
{
layerId = "F37AB417-88C0-44AC-8CB6-E42EDC742658";
paths = (
{
closed = 1;
nodes = (
"776 1193 LINE",
"933 1440 LINE",
"768 1563 LINE",
"632 1312 LINE",
"561 1357 LINE",
"327 1353 LINE",
"201 1255 LINE",
"46 958 LINE",
"65 550 LINE",
"177 346 LINE",
"51 99 LINE",
"201 29 LINE",
"305 253 LINE",
"374 225 LINE",
"603 211 LINE",
"771 340 LINE",
"818 871 LINE",
"776 1172 LINE"
);
},
{
closed = 1;
nodes = (
"275 622 LINE",
"228 726 LINE",
"223 887 LINE",
"383 1177 LINE",
"467 1202 LINE",
"537 1135 LINE"
);
},
{
closed = 1;
nodes = (
"663 538 LINE",
"570 394 LINE",
"457 384 LINE",
"406 496 LINE",
"663 1037 LINE",
"687 880 LINE"
);
}
);
width = 998;
}
);
note = "\012		oslash\012  ";
unicode = 00F8;
},
{
glyphname = germandbls;
layers = (
{
layerId = "F37AB417-88C0-44AC-8CB6-E42EDC742658";
paths = (
{
closed = 1;
nodes = (
"222 5 LINE",
"222 63 LINE",
"203 267 LINE",
"235 510 LINE",
"222 772 LINE",
"241 1028 LINE",
"254 1258 LINE",
"336 1379 LINE",
"490 1411 LINE",
"644 1360 LINE",
"695 1175 LINE",
"625 1047 LINE",
"522 919 LINE",
"490 785 LINE",
"541 664 LINE",
"637 593 LINE",
"765 497 LINE",
"867 350 LINE",
"854 210 LINE",
"721 153 LINE",
"586 204 LINE",
"445 376 LINE",
"336 274 LINE",
"433 185 LINE",
"516 63 LINE",
"663 25 LINE",
"835 31 LINE",
"982 121 LINE",
"1020 248 LINE",
"982 440 LINE",
"873 613 LINE",
"772 709 LINE",
"695 759 LINE",
"682 880 LINE",
"740 951 LINE",
"816 1085 LINE",
"841 1251 LINE",
"797 1366 LINE",
"631 1488 LINE",
"516 1532 LINE",
"343 1532 LINE",
"203 1468 LINE",
"113 1353 LINE",
"81 976 LINE",
"81 -7 LINE"
);
}
);
width = 1073;
}
);
note = "\012		germandbls\012  ";
unicode = 00DF;
},
{
glyphname = divide;
layers = (
{
layerId = "F37AB417-88C0-44AC-8CB6-E42EDC742658";
paths = (
{
closed = 1;
nodes = (
"1036 886 LINE",
"999 686 LINE",
"125 731 LINE",
"133 931 LINE"
);
},
{
closed = 1;
nodes = (
"710 425 LINE",
"718 499 LINE",
"644 602 LINE",
"548 602 LINE",
"466 536 LINE",
"459 417 LINE",
"518 351 LINE",
"629 373 LINE"
);
},
{
closed = 1;
nodes = (
"703 1110 LINE",
"711 1184 LINE",
"637 1287 LINE",
"541 1287 LINE",
"459 1221 LINE",
"452 1102 LINE",
"511 1036 LINE",
"622 1058 LINE"
);
}
);
width = 1110;
}
);
note = "\012		divide\012  ";
unicode = 00F7;
},
{
glyphname = degree;
layers = (
{
layerId = "F37AB417-88C0-44AC-8CB6-E42EDC742658";
paths = (
{
closed = 1;
nodes = (
"465 835 LINE",
"412 881 LINE",
"307 899 LINE",
"251 884 LINE",
"183 800 LINE",
"179 736 LINE",
"197 675 LINE",
"251 629 LINE",
"304 601 LINE",
"393 604 LINE",
"447 650 LINE",
"482 701 LINE",
"489 772 LINE"
);
},
{
closed = 1;
nodes = (
"404 701 LINE",
"377 678 LINE",
"343 672 LINE",
"294 676 LINE",
"259 704 LINE",
"245 739 LINE",
"249 790 LINE",
"281 823 LINE",
"321 838 LINE",
"351 834 LINE",
"385 819 LINE",
"413 794 LINE",
"415 739 LINE"
);
}
);
width = 674;
}
);
note = "\012		degree\012  ";
unicode = 00B0;
},
{
glyphname = minus;
layers = (
{
layerId = "F37AB417-88C0-44AC-8CB6-E42EDC742658";
paths = (
{
closed = 1;
nodes = (
"95 296 LINE",
"221 304 LINE",
"1124 311 LINE",
"1065 459 LINE",
"177 407 LINE"
);
}
);
width = 1303;
}
);
note = "\012		minus\012  ";
unicode = 2212;
},
{
glyphname = multiply;
layers = (
{
layerId = "F37AB417-88C0-44AC-8CB6-E42EDC742658";
paths = (
{
closed = 1;
nodes = (
"784 475 LINE",
"883 648 LINE",
"665 932 LINE",
"883 1142 LINE",
"807 1360 LINE",
"581 1090 LINE",
"290 1241 LINE",
"154 1202 LINE",
"438 895 LINE",
"139 633 LINE",
"290 549 LINE",
"574 825 LINE"
);
}
);
width = 1014;
}
);
note = "\012		multiply\012  ";
unicode = 00D7;
},
{
glyphname = Aacute;
layers = (
{
layerId = "F37AB417-88C0-44AC-8CB6-E42EDC742658";
paths = (
{
closed = 1;
nodes = (
"816 1410 LINE",
"1017 1663 LINE",
"794 1665 LINE",
"729 1410 LINE"
);
},
{
closed = 1;
nodes = (
"227 29 LINE",
"335 446 LINE",
"713 589 LINE",
"923 29 LINE",
"1163 29 LINE",
"829 1296 LINE",
"387 1275 LINE",
"67 29 LINE"
);
},
{
closed = 1;
nodes = (
"466 937 LINE",
"651 1122 LINE",
"706 753 LINE",
"420 768 LINE"
);
}
);
userData = {
com.schriftgestaltung.Glyphs.lastChange = "2020-06-12 03:07:02 +0000";
};
width = 1301;
}
);
note = "\012		Aacute\012  ";
unicode = 00C1;
},
{
glyphname = Acircumflex;
lastChange = "2020-06-13 10:01:06 +0000";
layers = (
{
layerId = "F37AB417-88C0-44AC-8CB6-E42EDC742658";
paths = (
{
closed = 1;
nodes = (
"357 29 LINE",
"465 446 LINE",
"843 589 LINE",
"1053 29 LINE",
"1293 29 LINE",
"959 1296 LINE",
"517 1275 LINE",
"197 29 LINE"
);
},
{
closed = 1;
nodes = (
"596 937 LINE",
"781 1122 LINE",
"836 753 LINE",
"550 768 LINE"
);
},
{
closed = 1;
nodes = (
"999 1377 LINE",
"735 1722 LINE",
"502 1375 LINE",
"696 1363 LINE",
"772 1542 LINE",
"880 1366 LINE"
);
}
);
width = 1540;
}
);
note = "\012		Acircumflex\012  ";
unicode = 00C2;
},
{
glyphname = Adieresis;
layers = (
{
layerId = "F37AB417-88C0-44AC-8CB6-E42EDC742658";
paths = (
{
closed = 1;
nodes = (
"643 1699 LINE",
"593 1716 LINE",
"557 1706 LINE",
"526 1688 LINE",
"507 1650 LINE",
"494 1612 LINE",
"488 1579 LINE",
"500 1544 LINE",
"521 1519 LINE",
"552 1494 LINE",
"593 1480 LINE",
"641 1475 LINE",
"677 1489 LINE",
"703 1519 LINE",
"725 1541 LINE",
"737 1581 LINE",
"737 1621 LINE",
"718 1655 LINE",
"703 1678 LINE",
"665 1697 LINE"
);
},
{
closed = 1;
nodes = (
"982 1676 LINE",
"932 1692 LINE",
"895 1682 LINE",
"864 1664 LINE",
"845 1626 LINE",
"833 1588 LINE",
"826 1555 LINE",
"838 1520 LINE",
"860 1496 LINE",
"891 1470 LINE",
"932 1456 LINE",
"980 1451 LINE",
"1016 1465 LINE",
"1042 1496 LINE",
"1064 1517 LINE",
"1076 1557 LINE",
"1076 1597 LINE",
"1056 1631 LINE",
"1042 1654 LINE",
"1004 1673 LINE"
);
},
{
closed = 1;
nodes = (
"364 19 LINE",
"477 454 LINE",
"871 604 LINE",
"1091 19 LINE",
"1341 19 LINE",
"992 1342 LINE",
"531 1320 LINE",
"197 19 LINE"
);
},
{
closed = 1;
nodes = (
"614 967 LINE",
"807 1160 LINE",
"864 775 LINE",
"565 790 LINE"
);
}
);
userData = {
com.schriftgestaltung.Glyphs.lastChange = "2020-06-12 02:15:54 +0000";
};
width = 1540;
}
);
note = "\012		Adieresis\012  ";
unicode = 00C4;
},
{
glyphname = Agrave;
layers = (
{
layerId = "F37AB417-88C0-44AC-8CB6-E42EDC742658";
paths = (
{
closed = 1;
nodes = (
"458 1461 LINE",
"252 1725 LINE",
"481 1727 LINE",
"548 1461 LINE"
);
},
{
closed = 1;
nodes = (
"204 19 LINE",
"317 454 LINE",
"711 604 LINE",
"931 19 LINE",
"1181 19 LINE",
"832 1342 LINE",
"371 1320 LINE",
"37 19 LINE"
);
},
{
closed = 1;
nodes = (
"454 967 LINE",
"647 1160 LINE",
"704 775 LINE",
"405 790 LINE"
);
}
);
userData = {
com.schriftgestaltung.Glyphs.lastChange = "2020-06-12 02:15:30 +0000";
};
width = 1236;
}
);
note = "\012		Agrave\012  ";
unicode = 00C0;
},
{
glyphname = Aring;
layers = (
{
layerId = "F37AB417-88C0-44AC-8CB6-E42EDC742658";
paths = (
{
closed = 1;
nodes = (
"642 1689 LINE",
"592 1706 LINE",
"556 1696 LINE",
"525 1678 LINE",
"506 1640 LINE",
"493 1602 LINE",
"487 1569 LINE",
"499 1534 LINE",
"520 1509 LINE",
"551 1484 LINE",
"592 1470 LINE",
"640 1465 LINE",
"676 1479 LINE",
"702 1509 LINE",
"724 1531 LINE",
"736 1571 LINE",
"736 1611 LINE",
"717 1645 LINE",
"702 1668 LINE",
"664 1687 LINE"
);
},
{
closed = 1;
nodes = (
"204 19 LINE",
"317 454 LINE",
"711 604 LINE",
"931 19 LINE",
"1181 19 LINE",
"832 1342 LINE",
"371 1320 LINE",
"37 19 LINE"
);
},
{
closed = 1;
nodes = (
"454 967 LINE",
"647 1160 LINE",
"704 775 LINE",
"405 790 LINE"
);
}
);
userData = {
com.schriftgestaltung.Glyphs.lastChange = "2020-06-12 02:16:16 +0000";
};
width = 1229;
}
);
note = "\012		Aring\012  ";
unicode = 00C5;
},
{
glyphname = Atilde;
layers = (
{
layerId = "F37AB417-88C0-44AC-8CB6-E42EDC742658";
paths = (
{
closed = 1;
nodes = (
"816 1430 LINE",
"1017 1683 LINE",
"794 1685 LINE",
"729 1430 LINE"
);
},
{
closed = 1;
nodes = (
"227 29 LINE",
"335 446 LINE",
"713 589 LINE",
"923 29 LINE",
"1163 29 LINE",
"829 1296 LINE",
"387 1275 LINE",
"67 29 LINE"
);
},
{
closed = 1;
nodes = (
"466 937 LINE",
"651 1122 LINE",
"706 753 LINE",
"420 768 LINE"
);
}
);
userData = {
com.schriftgestaltung.Glyphs.lastChange = "2020-06-12 03:25:57 +0000";
};
width = 1229;
}
);
note = "\012		Atilde\012  ";
unicode = 00C3;
},
{
glyphname = Ccedilla;
lastChange = "2020-06-13 10:27:47 +0000";
layers = (
{
layerId = "F37AB417-88C0-44AC-8CB6-E42EDC742658";
paths = (
{
closed = 1;
nodes = (
"670 253 LINE",
"648 122 LINE",
"540 31 LINE",
"328 122 LINE",
"361 -16 LINE",
"540 -70 LINE",
"721 4 LINE",
"834 239 LINE"
);
},
{
closed = 1;
nodes = (
"971 1278 LINE",
"648 1519 LINE",
"387 1500 LINE",
"39 1365 LINE",
"16 760 LINE",
"65 373 LINE",
"406 178 LINE",
"814 203 LINE",
"974 307 LINE",
"996 593 LINE",
"860 581 LINE",
"834 432 LINE",
"689 373 LINE",
"208 621 LINE",
"208 1126 LINE",
"559 1378 LINE",
"802 1203 LINE"
);
}
);
userData = {
com.schriftgestaltung.Glyphs.lastChange = "2020-06-12 01:48:46 +0000";
};
width = 999;
}
);
note = "\012		Ccedilla\012  ";
unicode = 00C7;
},
{
glyphname = Eacute;
layers = (
{
layerId = "F37AB417-88C0-44AC-8CB6-E42EDC742658";
paths = (
{
closed = 1;
nodes = (
"116 1371 LINE",
"101 20 LINE",
"793 36 LINE",
"783 210 LINE",
"320 210 LINE",
"320 596 LINE",
"703 623 LINE",
"760 782 LINE",
"310 792 LINE",
"310 1213 LINE",
"760 1213 LINE",
"760 1314 LINE"
);
},
{
closed = 1;
nodes = (
"542 1443 LINE",
"761 1718 LINE",
"518 1720 LINE",
"448 1443 LINE"
);
}
);
userData = {
com.schriftgestaltung.Glyphs.lastChange = "2020-06-12 03:27:12 +0000";
};
width = 897;
}
);
note = "\012		Eacute\012  ";
unicode = 00C9;
},
{
glyphname = Ecircumflex;
lastChange = "2020-06-13 10:09:25 +0000";
layers = (
{
layerId = "F37AB417-88C0-44AC-8CB6-E42EDC742658";
paths = (
{
closed = 1;
nodes = (
"829 1397 LINE",
"565 1722 LINE",
"332 1395 LINE",
"526 1383 LINE",
"602 1542 LINE",
"710 1386 LINE"
);
},
{
closed = 1;
nodes = (
"256 1334 LINE",
"241 20 LINE",
"933 36 LINE",
"923 205 LINE",
"460 205 LINE",
"460 580 LINE",
"843 607 LINE",
"900 761 LINE",
"450 771 LINE",
"450 1181 LINE",
"900 1181 LINE",
"900 1279 LINE"
);
}
);
width = 1151;
}
);
note = "\012		Ecircumflex\012  ";
unicode = 00CA;
},
{
glyphname = Edieresis;
layers = (
{
layerId = "F37AB417-88C0-44AC-8CB6-E42EDC742658";
paths = (
{
closed = 1;
nodes = (
"250 1759 LINE",
"200 1776 LINE",
"164 1766 LINE",
"133 1748 LINE",
"114 1710 LINE",
"101 1672 LINE",
"95 1639 LINE",
"107 1604 LINE",
"128 1579 LINE",
"159 1554 LINE",
"200 1540 LINE",
"248 1535 LINE",
"284 1549 LINE",
"310 1579 LINE",
"332 1601 LINE",
"344 1641 LINE",
"344 1681 LINE",
"325 1715 LINE",
"310 1738 LINE",
"272 1757 LINE"
);
},
{
closed = 1;
nodes = (
"589 1736 LINE",
"539 1752 LINE",
"502 1742 LINE",
"471 1724 LINE",
"452 1686 LINE",
"440 1648 LINE",
"433 1615 LINE",
"445 1580 LINE",
"467 1556 LINE",
"498 1530 LINE",
"539 1516 LINE",
"587 1511 LINE",
"623 1525 LINE",
"649 1556 LINE",
"671 1577 LINE",
"683 1617 LINE",
"683 1657 LINE",
"663 1691 LINE",
"649 1714 LINE",
"611 1733 LINE"
);
},
{
closed = 1;
nodes = (
"116 1391 LINE",
"101 40 LINE",
"793 56 LINE",
"783 230 LINE",
"320 230 LINE",
"320 616 LINE",
"703 643 LINE",
"760 802 LINE",
"310 812 LINE",
"310 1233 LINE",
"760 1233 LINE",
"760 1334 LINE"
);
}
);
userData = {
com.schriftgestaltung.Glyphs.lastChange = "2020-06-12 01:11:11 +0000";
};
width = 785;
}
);
note = "\012		Edieresis\012  ";
unicode = 00CB;
},
{
glyphname = Egrave;
layers = (
{
layerId = "F37AB417-88C0-44AC-8CB6-E42EDC742658";
paths = (
{
closed = 1;
nodes = (
"116 1391 LINE",
"101 40 LINE",
"793 56 LINE",
"783 230 LINE",
"320 230 LINE",
"320 616 LINE",
"703 643 LINE",
"760 802 LINE",
"310 812 LINE",
"310 1233 LINE",
"760 1233 LINE",
"760 1334 LINE"
);
},
{
closed = 1;
nodes = (
"232 1463 LINE",
"32 1738 LINE",
"254 1740 LINE",
"318 1463 LINE"
);
}
);
userData = {
com.schriftgestaltung.Glyphs.lastChange = "2020-06-12 01:10:38 +0000";
};
width = 814;
}
);
note = "\012		Egrave\012  ";
unicode = 00C8;
},
{
glyphname = Iacute;
layers = (
{
layerId = "F37AB417-88C0-44AC-8CB6-E42EDC742658";
paths = (
{
closed = 1;
nodes = (
"221 1372 LINE",
"221 179 LINE",
"437 47 LINE",
"461 1378 LINE"
);
},
{
closed = 1;
nodes = (
"372 1463 LINE",
"591 1738 LINE",
"348 1740 LINE",
"278 1463 LINE"
);
}
);
userData = {
com.schriftgestaltung.Glyphs.lastChange = "2020-06-12 01:12:28 +0000";
};
width = 703;
}
);
note = "\012		Iacute\012  ";
unicode = 00CD;
},
{
glyphname = Icircumflex;
lastChange = "2020-06-13 10:05:38 +0000";
layers = (
{
layerId = "F37AB417-88C0-44AC-8CB6-E42EDC742658";
paths = (
{
closed = 1;
nodes = (
"221 1292 LINE",
"221 179 LINE",
"437 47 LINE",
"461 1298 LINE"
);
},
{
closed = 1;
nodes = (
"579 1377 LINE",
"315 1722 LINE",
"82 1375 LINE",
"276 1363 LINE",
"352 1542 LINE",
"460 1366 LINE"
);
}
);
width = 657;
}
);
note = "\012		Icircumflex\012  ";
unicode = 00CE;
},
{
glyphname = Idieresis;
layers = (
{
layerId = "F37AB417-88C0-44AC-8CB6-E42EDC742658";
paths = (
{
closed = 1;
nodes = (
"193 1789 LINE",
"142 1806 LINE",
"106 1796 LINE",
"75 1778 LINE",
"56 1740 LINE",
"44 1702 LINE",
"37 1669 LINE",
"49 1634 LINE",
"70 1609 LINE",
"102 1584 LINE",
"142 1570 LINE",
"190 1565 LINE",
"227 1579 LINE",
"253 1609 LINE",
"275 1631 LINE",
"287 1671 LINE",
"287 1711 LINE",
"267 1745 LINE",
"253 1768 LINE",
"215 1787 LINE"
);
},
{
closed = 1;
nodes = (
"531 1766 LINE",
"481 1782 LINE",
"445 1772 LINE",
"414 1754 LINE",
"395 1716 LINE",
"383 1678 LINE",
"376 1645 LINE",
"388 1610 LINE",
"409 1586 LINE",
"440 1560 LINE",
"481 1546 LINE",
"529 1541 LINE",
"565 1555 LINE",
"591 1586 LINE",
"613 1607 LINE",
"625 1647 LINE",
"625 1687 LINE",
"606 1721 LINE",
"591 1744 LINE",
"553 1763 LINE"
);
},
{
closed = 1;
nodes = (
"221 1372 LINE",
"221 179 LINE",
"437 47 LINE",
"461 1378 LINE"
);
}
);
userData = {
com.schriftgestaltung.Glyphs.lastChange = "2020-06-12 01:34:55 +0000";
};
width = 657;
}
);
note = "\012		Idieresis\012  ";
unicode = 00CF;
},
{
glyphname = Igrave;
layers = (
{
layerId = "F37AB417-88C0-44AC-8CB6-E42EDC742658";
paths = (
{
closed = 1;
nodes = (
"221 1372 LINE",
"221 179 LINE",
"437 47 LINE",
"461 1378 LINE"
);
},
{
closed = 1;
nodes = (
"259 1464 LINE",
"102 1739 LINE",
"298 1740 LINE",
"348 1463 LINE"
);
}
);
userData = {
com.schriftgestaltung.Glyphs.lastChange = "2020-06-12 01:14:03 +0000";
};
width = 657;
}
);
note = "\012		Igrave\012  ";
unicode = 00CC;
},
{
glyphname = Ntilde;
layers = (
{
layerId = "F37AB417-88C0-44AC-8CB6-E42EDC742658";
paths = (
{
closed = 1;
nodes = (
"281 1741 LINE",
"281 1584 LINE",
"533 1482 LINE",
"744 1584 LINE",
"1062 1489 LINE",
"1079 1631 LINE",
"754 1760 LINE",
"509 1641 LINE"
);
},
{
closed = 1;
nodes = (
"220 1334 LINE",
"177 52 LINE",
"334 42 LINE",
"389 1168 LINE",
"946 51 LINE",
"1122 50 LINE",
"1152 1367 LINE",
"980 1427 LINE",
"899 464 LINE",
"449 1415 LINE"
);
}
);
userData = {
com.schriftgestaltung.Glyphs.lastChange = "2020-06-12 03:28:40 +0000";
};
width = 1341;
}
);
note = "\012		Ntilde\012  ";
unicode = 00D1;
},
{
glyphname = Oacute;
lastChange = "2020-06-13 10:12:05 +0000";
layers = (
{
layerId = "F37AB417-88C0-44AC-8CB6-E42EDC742658";
paths = (
{
closed = 1;
nodes = (
"892 1433 LINE",
"1111 1708 LINE",
"868 1710 LINE",
"798 1433 LINE"
);
},
{
closed = 1;
nodes = (
"925 0 LINE",
"1293 256 LINE",
"1377 655 LINE",
"1324 1129 LINE",
"937 1361 LINE",
"493 1361 LINE",
"133 1153 LINE",
"32 659 LINE",
"204 198 LINE",
"526 0 LINE"
);
},
{
closed = 1;
nodes = (
"980 1164 LINE",
"1143 869 LINE",
"1169 477 LINE",
"897 199 LINE",
"478 199 LINE",
"290 474 LINE",
"290 869 LINE",
"450 1172 LINE"
);
}
);
userData = {
com.schriftgestaltung.Glyphs.lastChange = "2020-06-12 01:17:17 +0000";
};
width = 1434;
}
);
note = "\012		Oacute\012  ";
unicode = 00D3;
},
{
glyphname = Ocircumflex;
lastChange = "2020-06-13 10:14:53 +0000";
layers = (
{
layerId = "F37AB417-88C0-44AC-8CB6-E42EDC742658";
paths = (
{
closed = 1;
nodes = (
"1069 1430 LINE",
"805 1732 LINE",
"572 1428 LINE",
"746 1406 LINE",
"842 1552 LINE",
"950 1419 LINE"
);
},
{
closed = 1;
nodes = (
"1015 -10 LINE",
"1383 246 LINE",
"1467 645 LINE",
"1414 1119 LINE",
"1027 1351 LINE",
"583 1351 LINE",
"223 1143 LINE",
"122 649 LINE",
"294 188 LINE",
"616 -10 LINE"
);
},
{
closed = 1;
nodes = (
"1070 1154 LINE",
"1233 859 LINE",
"1259 467 LINE",
"987 189 LINE",
"568 189 LINE",
"380 464 LINE",
"380 859 LINE",
"540 1162 LINE"
);
}
);
width = 1614;
}
);
note = "\012		Ocircumflex\012  ";
unicode = 00D4;
},
{
glyphname = Odieresis;
lastChange = "2020-06-13 10:15:28 +0000";
layers = (
{
layerId = "F37AB417-88C0-44AC-8CB6-E42EDC742658";
paths = (
{
closed = 1;
nodes = (
"593 1701 LINE",
"543 1718 LINE",
"507 1708 LINE",
"476 1690 LINE",
"457 1652 LINE",
"444 1614 LINE",
"438 1581 LINE",
"450 1546 LINE",
"471 1521 LINE",
"502 1496 LINE",
"543 1482 LINE",
"591 1477 LINE",
"627 1491 LINE",
"653 1521 LINE",
"675 1543 LINE",
"687 1583 LINE",
"687 1623 LINE",
"668 1657 LINE",
"653 1680 LINE",
"615 1699 LINE"
);
},
{
closed = 1;
nodes = (
"932 1678 LINE",
"882 1694 LINE",
"845 1684 LINE",
"814 1666 LINE",
"795 1628 LINE",
"783 1590 LINE",
"776 1557 LINE",
"788 1522 LINE",
"810 1498 LINE",
"841 1472 LINE",
"882 1458 LINE",
"930 1453 LINE",
"966 1467 LINE",
"992 1498 LINE",
"1014 1519 LINE",
"1026 1559 LINE",
"1026 1599 LINE",
"1006 1633 LINE",
"992 1656 LINE",
"954 1675 LINE"
);
},
{
closed = 1;
nodes = (
"937 10 LINE",
"1305 266 LINE",
"1389 665 LINE",
"1336 1139 LINE",
"949 1371 LINE",
"505 1371 LINE",
"145 1163 LINE",
"44 669 LINE",
"216 208 LINE",
"538 10 LINE"
);
},
{
closed = 1;
nodes = (
"992 1174 LINE",
"1155 879 LINE",
"1181 487 LINE",
"909 209 LINE",
"490 209 LINE",
"302 484 LINE",
"302 879 LINE",
"462 1182 LINE"
);
}
);
userData = {
com.schriftgestaltung.Glyphs.lastChange = "2020-06-12 01:38:23 +0000";
};
width = 1451;
}
);
note = "\012		Odieresis\012  ";
unicode = 00D6;
},
{
glyphname = Ograve;
lastChange = "2020-06-13 10:16:09 +0000";
layers = (
{
layerId = "F37AB417-88C0-44AC-8CB6-E42EDC742658";
paths = (
{
closed = 1;
nodes = (
"557 1453 LINE",
"369 1728 LINE",
"578 1730 LINE",
"638 1453 LINE"
);
},
{
closed = 1;
nodes = (
"924 12 LINE",
"1292 268 LINE",
"1376 667 LINE",
"1323 1141 LINE",
"936 1373 LINE",
"492 1373 LINE",
"132 1165 LINE",
"31 671 LINE",
"203 210 LINE",
"525 12 LINE"
);
},
{
closed = 1;
nodes = (
"979 1176 LINE",
"1142 881 LINE",
"1168 489 LINE",
"896 211 LINE",
"477 211 LINE",
"289 486 LINE",
"289 881 LINE",
"449 1184 LINE"
);
}
);
userData = {
com.schriftgestaltung.Glyphs.lastChange = "2020-06-12 01:16:44 +0000";
};
width = 1399;
}
);
note = "\012		Ograve\012  ";
unicode = 00D2;
},
{
glyphname = Otilde;
lastChange = "2020-06-13 10:16:31 +0000";
layers = (
{
layerId = "F37AB417-88C0-44AC-8CB6-E42EDC742658";
paths = (
{
closed = 1;
nodes = (
"892 1458 LINE",
"1111 1733 LINE",
"868 1735 LINE",
"798 1458 LINE"
);
},
{
closed = 1;
nodes = (
"925 11 LINE",
"1293 267 LINE",
"1377 666 LINE",
"1324 1140 LINE",
"937 1372 LINE",
"493 1372 LINE",
"133 1164 LINE",
"32 670 LINE",
"204 209 LINE",
"526 11 LINE"
);
},
{
closed = 1;
nodes = (
"980 1175 LINE",
"1143 880 LINE",
"1169 488 LINE",
"897 210 LINE",
"478 210 LINE",
"290 485 LINE",
"290 880 LINE",
"450 1183 LINE"
);
}
);
userData = {
com.schriftgestaltung.Glyphs.lastChange = "2020-06-12 01:16:03 +0000";
};
width = 1406;
}
);
note = "\012		Otilde\012  ";
unicode = 00D5;
},
{
glyphname = Uacute;
lastChange = "2020-06-13 10:18:00 +0000";
layers = (
{
layerId = "F37AB417-88C0-44AC-8CB6-E42EDC742658";
paths = (
{
closed = 1;
nodes = (
"502 1503 LINE",
"721 1738 LINE",
"478 1740 LINE",
"408 1503 LINE"
);
},
{
closed = 1;
nodes = (
"181 1461 LINE",
"20 1461 LINE",
"20 935 LINE",
"31 582 LINE",
"270 71 LINE",
"566 15 LINE",
"868 145 LINE",
"986 577 LINE",
"971 1454 LINE",
"828 1454 LINE",
"849 505 LINE",
"539 344 LINE",
"181 505 LINE"
);
}
);
userData = {
com.schriftgestaltung.Glyphs.lastChange = "2020-06-12 01:18:19 +0000";
};
width = 1004;
}
);
note = "\012		Uacute\012  ";
unicode = 00DA;
},
{
glyphname = Ucircumflex;
lastChange = "2020-06-13 10:18:47 +0000";
layers = (
{
layerId = "F37AB417-88C0-44AC-8CB6-E42EDC742658";
paths = (
{
closed = 1;
nodes = (
"969 1517 LINE",
"705 1802 LINE",
"472 1515 LINE",
"666 1503 LINE",
"742 1622 LINE",
"850 1506 LINE"
);
},
{
closed = 1;
nodes = (
"391 1461 LINE",
"230 1461 LINE",
"230 935 LINE",
"241 582 LINE",
"480 71 LINE",
"776 15 LINE",
"1078 145 LINE",
"1196 577 LINE",
"1181 1454 LINE",
"1038 1454 LINE",
"1059 505 LINE",
"749 344 LINE",
"391 505 LINE"
);
}
);
width = 1501;
}
);
note = "\012		Ucircumflex\012  ";
unicode = 00DB;
},
{
glyphname = Udieresis;
lastChange = "2020-06-13 10:19:23 +0000";
layers = (
{
layerId = "F37AB417-88C0-44AC-8CB6-E42EDC742658";
paths = (
{
closed = 1;
nodes = (
"354 1740 LINE",
"304 1757 LINE",
"268 1747 LINE",
"237 1729 LINE",
"218 1691 LINE",
"205 1653 LINE",
"199 1620 LINE",
"211 1585 LINE",
"232 1560 LINE",
"263 1535 LINE",
"304 1521 LINE",
"352 1516 LINE",
"388 1530 LINE",
"414 1560 LINE",
"436 1582 LINE",
"448 1622 LINE",
"448 1662 LINE",
"429 1696 LINE",
"414 1719 LINE",
"376 1738 LINE"
);
},
{
closed = 1;
nodes = (
"693 1717 LINE",
"643 1733 LINE",
"606 1723 LINE",
"575 1705 LINE",
"556 1667 LINE",
"544 1629 LINE",
"537 1596 LINE",
"549 1561 LINE",
"571 1537 LINE",
"602 1511 LINE",
"643 1497 LINE",
"691 1492 LINE",
"727 1506 LINE",
"753 1537 LINE",
"775 1558 LINE",
"787 1598 LINE",
"787 1638 LINE",
"767 1672 LINE",
"753 1695 LINE",
"715 1714 LINE"
);
},
{
closed = 1;
nodes = (
"170 1461 LINE",
"9 1461 LINE",
"9 935 LINE",
"20 582 LINE",
"259 71 LINE",
"555 15 LINE",
"857 145 LINE",
"975 577 LINE",
"960 1454 LINE",
"817 1454 LINE",
"838 505 LINE",
"528 344 LINE",
"170 505 LINE"
);
}
);
userData = {
com.schriftgestaltung.Glyphs.lastChange = "2020-06-12 01:19:30 +0000";
};
width = 970;
}
);
note = "\012		Udieresis\012  ";
unicode = 00DC;
},
{
glyphname = Ugrave;
lastChange = "2020-06-13 10:20:08 +0000";
layers = (
{
layerId = "F37AB417-88C0-44AC-8CB6-E42EDC742658";
paths = (
{
closed = 1;
nodes = (
"422 1513 LINE",
"269 1738 LINE",
"439 1740 LINE",
"488 1513 LINE"
);
},
{
closed = 1;
nodes = (
"162 1437 LINE",
"4 1437 LINE",
"4 920 LINE",
"15 573 LINE",
"250 70 LINE",
"541 15 LINE",
"838 143 LINE",
"954 568 LINE",
"940 1431 LINE",
"799 1431 LINE",
"820 497 LINE",
"515 339 LINE",
"162 497 LINE"
);
}
);
userData = {
com.schriftgestaltung.Glyphs.lastChange = "2020-06-12 01:19:11 +0000";
};
width = 955;
}
);
note = "\012		Ugrave\012  ";
unicode = 00D9;
},
{
glyphname = Yacute;
lastChange = "2020-06-13 10:21:36 +0000";
layers = (
{
layerId = "F37AB417-88C0-44AC-8CB6-E42EDC742658";
paths = (
{
closed = 1;
nodes = (
"448 735 LINE",
"448 -2 LINE",
"597 0 LINE",
"597 716 LINE",
"1215 1534 LINE",
"979 1534 LINE",
"515 950 LINE",
"206 1554 LINE",
"49 1555 LINE"
);
},
{
closed = 1;
nodes = (
"632 1458 LINE",
"851 1733 LINE",
"608 1735 LINE",
"538 1458 LINE"
);
}
);
width = 1233;
}
);
note = "\012		Yacute\012  ";
unicode = 00DD;
},
{
glyphname = aacute;
lastChange = "2020-06-13 10:22:40 +0000";
layers = (
{
layerId = "F37AB417-88C0-44AC-8CB6-E42EDC742658";
paths = (
{
closed = 1;
nodes = (
"567 1394 LINE",
"720 1599 LINE",
"551 1600 LINE",
"502 1394 LINE"
);
},
{
closed = 1;
nodes = (
"146 277 LINE",
"234 615 LINE",
"539 730 LINE",
"709 277 LINE",
"903 277 LINE",
"633 1302 LINE",
"275 1285 LINE",
"17 277 LINE"
);
},
{
closed = 1;
nodes = (
"340 1011 LINE",
"489 1161 LINE",
"533 863 LINE",
"302 874 LINE"
);
}
);
width = 922;
}
);
note = "\012		aacute\012  ";
unicode = 00E1;
},
{
glyphname = acircumflex;
lastChange = "2020-06-13 10:23:26 +0000";
layers = (
{
layerId = "F37AB417-88C0-44AC-8CB6-E42EDC742658";
paths = (
{
closed = 1;
nodes = (
"145 277 LINE",
"233 615 LINE",
"538 730 LINE",
"708 277 LINE",
"902 277 LINE",
"632 1302 LINE",
"274 1285 LINE",
"16 277 LINE"
);
},
{
closed = 1;
nodes = (
"339 1011 LINE",
"488 1161 LINE",
"532 863 LINE",
"301 874 LINE"
);
},
{
closed = 1;
nodes = (
"721 1377 LINE",
"457 1722 LINE",
"224 1375 LINE",
"418 1363 LINE",
"494 1542 LINE",
"602 1366 LINE"
);
}
);
width = 922;
}
);
note = "\012		acircumflex\012  ";
unicode = 00E2;
},
{
glyphname = adieresis;
layers = (
{
layerId = "F37AB417-88C0-44AC-8CB6-E42EDC742658";
paths = (
{
closed = 1;
nodes = (
"373 1618 LINE",
"338 1630 LINE",
"313 1623 LINE",
"291 1611 LINE",
"278 1584 LINE",
"270 1558 LINE",
"265 1535 LINE",
"273 1510 LINE",
"288 1494 LINE",
"310 1476 LINE",
"338 1466 LINE",
"371 1462 LINE",
"397 1472 LINE",
"415 1494 LINE",
"430 1508 LINE",
"438 1536 LINE",
"438 1564 LINE",
"425 1587 LINE",
"415 1604 LINE",
"388 1617 LINE"
);
},
{
closed = 1;
nodes = (
"674 1595 LINE",
"639 1607 LINE",
"614 1600 LINE",
"593 1587 LINE",
"579 1561 LINE",
"571 1534 LINE",
"566 1511 LINE",
"575 1487 LINE",
"589 1470 LINE",
"611 1452 LINE",
"639 1442 LINE",
"673 1439 LINE",
"698 1449 LINE",
"716 1470 LINE",
"731 1485 LINE",
"740 1513 LINE",
"740 1541 LINE",
"726 1564 LINE",
"716 1580 LINE",
"690 1593 LINE"
);
},
{
closed = 1;
nodes = (
"186 277 LINE",
"274 615 LINE",
"579 730 LINE",
"749 277 LINE",
"943 277 LINE",
"673 1302 LINE",
"315 1285 LINE",
"57 277 LINE"
);
},
{
closed = 1;
nodes = (
"380 1011 LINE",
"529 1161 LINE",
"573 863 LINE",
"342 874 LINE"
);
}
);
userData = {
com.schriftgestaltung.Glyphs.lastChange = "2020-06-12 02:25:49 +0000";
};
width = 977;
}
);
note = "\012		adieresis\012  ";
unicode = 00E4;
},
{
glyphname = agrave;
layers = (
{
layerId = "F37AB417-88C0-44AC-8CB6-E42EDC742658";
paths = (
{
closed = 1;
nodes = (
"386 1394 LINE",
"255 1599 LINE",
"400 1600 LINE",
"442 1394 LINE"
);
},
{
closed = 1;
nodes = (
"186 277 LINE",
"274 615 LINE",
"579 730 LINE",
"749 277 LINE",
"943 277 LINE",
"673 1302 LINE",
"315 1285 LINE",
"57 277 LINE"
);
},
{
closed = 1;
nodes = (
"380 1011 LINE",
"529 1161 LINE",
"573 863 LINE",
"342 874 LINE"
);
}
);
userData = {
com.schriftgestaltung.Glyphs.lastChange = "2020-06-12 02:25:11 +0000";
};
width = 999;
}
);
note = "\012		agrave\012  ";
unicode = 00E0;
},
{
glyphname = aring;
layers = (
{
layerId = "F37AB417-88C0-44AC-8CB6-E42EDC742658";
paths = (
{
closed = 1;
nodes = (
"545 1592 LINE",
"518 1626 LINE",
"488 1635 LINE",
"458 1637 LINE",
"428 1618 LINE",
"404 1597 LINE",
"384 1577 LINE",
"376 1547 LINE",
"381 1522 LINE",
"392 1490 LINE",
"413 1462 LINE",
"444 1437 LINE",
"476 1430 LINE",
"508 1441 LINE",
"532 1445 LINE",
"558 1468 LINE",
"576 1496 LINE",
"577 1528 LINE",
"578 1551 LINE",
"559 1581 LINE"
);
},
{
closed = 1;
nodes = (
"186 277 LINE",
"274 615 LINE",
"579 730 LINE",
"749 277 LINE",
"943 277 LINE",
"673 1302 LINE",
"315 1285 LINE",
"57 277 LINE"
);
},
{
closed = 1;
nodes = (
"380 1011 LINE",
"529 1161 LINE",
"573 863 LINE",
"342 874 LINE"
);
}
);
userData = {
com.schriftgestaltung.Glyphs.lastChange = "2020-06-12 02:25:29 +0000";
};
width = 984;
}
);
note = "\012		aring\012  ";
unicode = 00E5;
},
{
glyphname = atilde;
layers = (
{
layerId = "F37AB417-88C0-44AC-8CB6-E42EDC742658";
paths = (
{
closed = 1;
nodes = (
"567 1394 LINE",
"720 1599 LINE",
"551 1600 LINE",
"502 1394 LINE"
);
},
{
closed = 1;
nodes = (
"186 277 LINE",
"274 615 LINE",
"579 730 LINE",
"749 277 LINE",
"943 277 LINE",
"673 1302 LINE",
"315 1285 LINE",
"57 277 LINE"
);
},
{
closed = 1;
nodes = (
"380 1011 LINE",
"529 1161 LINE",
"573 863 LINE",
"342 874 LINE"
);
}
);
userData = {
com.schriftgestaltung.Glyphs.lastChange = "2020-06-12 02:24:40 +0000";
};
width = 984;
}
);
note = "\012		atilde\012  ";
unicode = 00E3;
},
{
glyphname = ccedilla;
layers = (
{
layerId = "F37AB417-88C0-44AC-8CB6-E42EDC742658";
paths = (
{
closed = 1;
nodes = (
"766 301 LINE",
"746 187 LINE",
"652 108 LINE",
"468 187 LINE",
"497 67 LINE",
"652 20 LINE",
"810 85 LINE",
"908 289 LINE"
);
},
{
closed = 1;
nodes = (
"1027 1192 LINE",
"746 1401 LINE",
"519 1385 LINE",
"217 1267 LINE",
"197 742 LINE",
"239 405 LINE",
"536 236 LINE",
"890 257 LINE",
"1030 348 LINE",
"1049 596 LINE",
"931 586 LINE",
"908 457 LINE",
"782 405 LINE",
"364 621 LINE",
"364 1060 LINE",
"669 1279 LINE",
"880 1127 LINE"
);
}
);
userData = {
com.schriftgestaltung.Glyphs.lastChange = "2020-06-12 01:49:46 +0000";
};
width = 1303;
}
);
note = "\012		ccedilla\012  ";
unicode = 00E7;
},
{
glyphname = eacute;
layers = (
{
layerId = "F37AB417-88C0-44AC-8CB6-E42EDC742658";
paths = (
{
closed = 1;
nodes = (
"414 1414 LINE",
"585 1628 LINE",
"396 1630 LINE",
"341 1414 LINE"
);
},
{
closed = 1;
nodes = (
"94 1305 LINE",
"83 321 LINE",
"587 332 LINE",
"580 459 LINE",
"243 459 LINE",
"243 741 LINE",
"522 760 LINE",
"563 875 LINE",
"236 883 LINE",
"236 1190 LINE",
"563 1190 LINE",
"563 1264 LINE"
);
}
);
userData = {
com.schriftgestaltung.Glyphs.lastChange = "2020-06-12 01:30:59 +0000";
};
width = 681;
}
);
note = "\012		eacute\012  ";
unicode = 00E9;
},
{
glyphname = ecircumflex;
lastChange = "2020-06-13 10:24:07 +0000";
layers = (
{
layerId = "F37AB417-88C0-44AC-8CB6-E42EDC742658";
paths = (
{
closed = 1;
nodes = (
"204 1305 LINE",
"193 321 LINE",
"697 332 LINE",
"690 459 LINE",
"353 459 LINE",
"353 741 LINE",
"632 760 LINE",
"673 875 LINE",
"346 883 LINE",
"346 1190 LINE",
"673 1190 LINE",
"673 1264 LINE"
);
},
{
closed = 1;
nodes = (
"690 1377 LINE",
"426 1722 LINE",
"193 1375 LINE",
"387 1363 LINE",
"463 1542 LINE",
"571 1366 LINE"
);
}
);
width = 909;
}
);
note = "\012		ecircumflex\012  ";
unicode = 00EA;
},
{
glyphname = edieresis;
layers = (
{
layerId = "F37AB417-88C0-44AC-8CB6-E42EDC742658";
paths = (
{
closed = 1;
nodes = (
"193 1565 LINE",
"157 1577 LINE",
"131 1570 LINE",
"108 1557 LINE",
"95 1529 LINE",
"86 1502 LINE",
"81 1478 LINE",
"90 1453 LINE",
"105 1435 LINE",
"127 1417 LINE",
"157 1407 LINE",
"191 1403 LINE",
"218 1413 LINE",
"236 1435 LINE",
"252 1451 LINE",
"261 1480 LINE",
"261 1509 LINE",
"247 1533 LINE",
"236 1550 LINE",
"209 1563 LINE"
);
},
{
closed = 1;
nodes = (
"437 1548 LINE",
"401 1560 LINE",
"375 1553 LINE",
"353 1540 LINE",
"339 1512 LINE",
"330 1485 LINE",
"325 1461 LINE",
"334 1436 LINE",
"349 1418 LINE",
"372 1400 LINE",
"401 1389 LINE",
"436 1386 LINE",
"462 1396 LINE",
"480 1418 LINE",
"496 1434 LINE",
"505 1463 LINE",
"505 1492 LINE",
"491 1516 LINE",
"480 1533 LINE",
"453 1546 LINE"
);
},
{
closed = 1;
nodes = (
"54 1305 LINE",
"43 321 LINE",
"547 332 LINE",
"540 459 LINE",
"203 459 LINE",
"203 741 LINE",
"482 760 LINE",
"523 875 LINE",
"196 883 LINE",
"196 1190 LINE",
"523 1190 LINE",
"523 1264 LINE"
);
}
);
userData = {
com.schriftgestaltung.Glyphs.lastChange = "2020-06-12 01:30:36 +0000";
};
width = 585;
}
);
note = "\012		edieresis\012  ";
unicode = 00EB;
},
{
glyphname = egrave;
layers = (
{
layerId = "F37AB417-88C0-44AC-8CB6-E42EDC742658";
paths = (
{
closed = 1;
nodes = (
"230 1414 LINE",
"88 1628 LINE",
"245 1630 LINE",
"291 1414 LINE"
);
},
{
closed = 1;
nodes = (
"34 1305 LINE",
"23 321 LINE",
"527 332 LINE",
"520 459 LINE",
"183 459 LINE",
"183 741 LINE",
"462 760 LINE",
"503 875 LINE",
"176 883 LINE",
"176 1190 LINE",
"503 1190 LINE",
"503 1264 LINE"
);
}
);
userData = {
com.schriftgestaltung.Glyphs.lastChange = "2020-06-12 01:31:17 +0000";
};
width = 548;
}
);
note = "\012		egrave\012  ";
unicode = 00E8;
},
{
glyphname = iacute;
layers = (
{
layerId = "F37AB417-88C0-44AC-8CB6-E42EDC742658";
paths = (
{
closed = 1;
nodes = (
"131 1347 LINE",
"131 362 LINE",
"310 253 LINE",
"329 1352 LINE"
);
},
{
closed = 1;
nodes = (
"273 1479 LINE",
"480 1738 LINE",
"251 1740 LINE",
"185 1479 LINE"
);
}
);
userData = {
com.schriftgestaltung.Glyphs.lastChange = "2020-06-12 01:34:42 +0000";
};
width = 514;
}
);
note = "\012		iacute\012  ";
unicode = 00ED;
},
{
glyphname = icircumflex;
lastChange = "2020-06-13 10:02:12 +0000";
layers = (
{
layerId = "F37AB417-88C0-44AC-8CB6-E42EDC742658";
paths = (
{
closed = 1;
nodes = (
"141 1282 LINE",
"141 179 LINE",
"357 47 LINE",
"381 1288 LINE"
);
},
{
closed = 1;
nodes = (
"509 1377 LINE",
"245 1722 LINE",
"12 1375 LINE",
"206 1363 LINE",
"282 1542 LINE",
"390 1366 LINE"
);
}
);
width = 514;
}
);
note = "\012		icircumflex\012  ";
unicode = 00EE;
},
{
glyphname = idieresis;
layers = (
{
layerId = "F37AB417-88C0-44AC-8CB6-E42EDC742658";
paths = (
{
closed = 1;
nodes = (
"149 1720 LINE",
"113 1732 LINE",
"87 1725 LINE",
"64 1712 LINE",
"51 1684 LINE",
"42 1657 LINE",
"37 1633 LINE",
"46 1608 LINE",
"61 1590 LINE",
"83 1572 LINE",
"113 1562 LINE",
"147 1558 LINE",
"174 1568 LINE",
"192 1590 LINE",
"208 1606 LINE",
"217 1635 LINE",
"217 1664 LINE",
"203 1688 LINE",
"192 1705 LINE",
"165 1718 LINE"
);
},
{
closed = 1;
nodes = (
"393 1703 LINE",
"357 1715 LINE",
"331 1708 LINE",
"309 1695 LINE",
"295 1667 LINE",
"286 1640 LINE",
"281 1616 LINE",
"290 1591 LINE",
"305 1573 LINE",
"328 1555 LINE",
"357 1544 LINE",
"392 1541 LINE",
"418 1551 LINE",
"436 1573 LINE",
"452 1589 LINE",
"461 1618 LINE",
"461 1647 LINE",
"447 1671 LINE",
"436 1688 LINE",
"409 1701 LINE"
);
},
{
closed = 1;
nodes = (
"141 1347 LINE",
"141 362 LINE",
"320 253 LINE",
"339 1352 LINE"
);
}
);
userData = {
com.schriftgestaltung.Glyphs.lastChange = "2020-06-12 01:34:51 +0000";
};
width = 514;
}
);
note = "\012		idieresis\012  ";
unicode = 00EF;
},
{
glyphname = igrave;
layers = (
{
layerId = "F37AB417-88C0-44AC-8CB6-E42EDC742658";
paths = (
{
closed = 1;
nodes = (
"238 1479 LINE",
"58 1738 LINE",
"258 1740 LINE",
"315 1479 LINE"
);
},
{
closed = 1;
nodes = (
"131 1347 LINE",
"131 362 LINE",
"310 253 LINE",
"329 1352 LINE"
);
}
);
userData = {
com.schriftgestaltung.Glyphs.lastChange = "2020-06-12 01:35:06 +0000";
};
width = 400;
}
);
note = "\012		igrave\012  ";
unicode = 00EC;
},
{
glyphname = ntilde;
layers = (
{
layerId = "F37AB417-88C0-44AC-8CB6-E42EDC742658";
paths = (
{
closed = 1;
nodes = (
"203 1532 LINE",
"203 1418 LINE",
"386 1344 LINE",
"540 1418 LINE",
"771 1349 LINE",
"783 1452 LINE",
"547 1546 LINE",
"369 1459 LINE"
);
},
{
closed = 1;
nodes = (
"158 1159 LINE",
"127 226 LINE",
"241 219 LINE",
"281 1038 LINE",
"687 225 LINE",
"815 225 LINE",
"836 1183 LINE",
"711 1227 LINE",
"652 526 LINE",
"325 1218 LINE"
);
}
);
userData = {
com.schriftgestaltung.Glyphs.lastChange = "2020-06-12 01:36:26 +0000";
};
width = 984;
}
);
note = "\012		ntilde\012  ";
unicode = 00F1;
},
{
glyphname = oacute;
layers = (
{
layerId = "F37AB417-88C0-44AC-8CB6-E42EDC742658";
paths = (
{
closed = 1;
nodes = (
"696 361 LINE",
"951 536 LINE",
"1009 811 LINE",
"971 1138 LINE",
"706 1298 LINE",
"399 1298 LINE",
"152 1154 LINE",
"82 816 LINE",
"201 498 LINE",
"422 361 LINE"
);
},
{
closed = 1;
nodes = (
"734 1162 LINE",
"847 959 LINE",
"864 689 LINE",
"678 498 LINE",
"389 498 LINE",
"259 688 LINE",
"259 959 LINE",
"369 1167 LINE"
);
},
{
closed = 1;
nodes = (
"697 1412 LINE",
"877 1638 LINE",
"678 1639 LINE",
"620 1412 LINE"
);
}
);
userData = {
com.schriftgestaltung.Glyphs.lastChange = "2020-06-12 01:37:10 +0000";
};
width = 1079;
}
);
note = "\012		oacute\012  ";
unicode = 00F3;
},
{
glyphname = ocircumflex;
lastChange = "2020-06-13 10:02:41 +0000";
layers = (
{
layerId = "F37AB417-88C0-44AC-8CB6-E42EDC742658";
paths = (
{
closed = 1;
nodes = (
"628 361 LINE",
"871 529 LINE",
"926 791 LINE",
"890 1103 LINE",
"637 1255 LINE",
"345 1255 LINE",
"109 1118 LINE",
"42 795 LINE",
"154 492 LINE",
"367 361 LINE"
);
},
{
closed = 1;
nodes = (
"664 1126 LINE",
"772 932 LINE",
"789 674 LINE",
"611 492 LINE",
"335 492 LINE",
"211 672 LINE",
"211 932 LINE",
"316 1131 LINE"
);
},
{
closed = 1;
nodes = (
"759 1377 LINE",
"495 1722 LINE",
"262 1375 LINE",
"456 1363 LINE",
"532 1542 LINE",
"640 1366 LINE"
);
}
);
width = 1010;
}
);
note = "\012		ocircumflex\012  ";
unicode = 00F4;
},
{
glyphname = odieresis;
layers = (
{
layerId = "F37AB417-88C0-44AC-8CB6-E42EDC742658";
paths = (
{
closed = 1;
nodes = (
"395 1543 LINE",
"356 1556 LINE",
"327 1548 LINE",
"304 1535 LINE",
"288 1505 LINE",
"278 1475 LINE",
"274 1449 LINE",
"283 1421 LINE",
"300 1402 LINE",
"323 1382 LINE",
"356 1372 LINE",
"393 1368 LINE",
"421 1379 LINE",
"442 1402 LINE",
"459 1419 LINE",
"469 1450 LINE",
"469 1482 LINE",
"454 1509 LINE",
"442 1526 LINE",
"412 1542 LINE"
);
},
{
closed = 1;
nodes = (
"660 1525 LINE",
"621 1538 LINE",
"592 1530 LINE",
"568 1515 LINE",
"553 1486 LINE",
"544 1456 LINE",
"539 1431 LINE",
"548 1403 LINE",
"564 1384 LINE",
"589 1364 LINE",
"621 1352 LINE",
"659 1349 LINE",
"687 1360 LINE",
"708 1384 LINE",
"724 1401 LINE",
"734 1432 LINE",
"734 1464 LINE",
"718 1489 LINE",
"708 1508 LINE",
"678 1522 LINE"
);
},
{
closed = 1;
nodes = (
"628 361 LINE",
"871 529 LINE",
"926 791 LINE",
"890 1103 LINE",
"637 1255 LINE",
"345 1255 LINE",
"109 1118 LINE",
"42 795 LINE",
"154 492 LINE",
"367 361 LINE"
);
},
{
closed = 1;
nodes = (
"664 1126 LINE",
"772 932 LINE",
"789 674 LINE",
"611 492 LINE",
"335 492 LINE",
"211 672 LINE",
"211 932 LINE",
"316 1131 LINE"
);
}
);
userData = {
com.schriftgestaltung.Glyphs.lastChange = "2020-06-12 01:38:50 +0000";
};
width = 970;
}
);
note = "\012		odieresis\012  ";
unicode = 00F6;
},
{
glyphname = ograve;
layers = (
{
layerId = "F37AB417-88C0-44AC-8CB6-E42EDC742658";
paths = (
{
closed = 1;
nodes = (
"696 361 LINE",
"951 536 LINE",
"1009 811 LINE",
"971 1138 LINE",
"706 1298 LINE",
"399 1298 LINE",
"152 1154 LINE",
"82 816 LINE",
"201 498 LINE",
"422 361 LINE"
);
},
{
closed = 1;
nodes = (
"734 1162 LINE",
"847 959 LINE",
"864 689 LINE",
"678 498 LINE",
"389 498 LINE",
"259 688 LINE",
"259 959 LINE",
"369 1167 LINE"
);
},
{
closed = 1;
nodes = (
"441 1412 LINE",
"279 1638 LINE",
"458 1639 LINE",
"510 1412 LINE"
);
}
);
userData = {
com.schriftgestaltung.Glyphs.lastChange = "2020-06-12 01:37:47 +0000";
};
width = 918;
}
);
note = "\012		ograve\012  ";
unicode = 00F2;
},
{
glyphname = otilde;
layers = (
{
layerId = "F37AB417-88C0-44AC-8CB6-E42EDC742658";
paths = (
{
closed = 1;
nodes = (
"696 361 LINE",
"951 536 LINE",
"1009 811 LINE",
"971 1138 LINE",
"706 1298 LINE",
"399 1298 LINE",
"152 1154 LINE",
"82 816 LINE",
"201 498 LINE",
"422 361 LINE"
);
},
{
closed = 1;
nodes = (
"734 1162 LINE",
"847 959 LINE",
"864 689 LINE",
"678 498 LINE",
"389 498 LINE",
"259 688 LINE",
"259 959 LINE",
"369 1167 LINE"
);
},
{
closed = 1;
nodes = (
"697 1412 LINE",
"877 1638 LINE",
"678 1639 LINE",
"620 1412 LINE"
);
}
);
userData = {
com.schriftgestaltung.Glyphs.lastChange = "2020-06-12 01:38:05 +0000";
};
width = 1044;
}
);
note = "\012		otilde\012  ";
unicode = 00F5;
},
{
glyphname = uacute;
layers = (
{
layerId = "F37AB417-88C0-44AC-8CB6-E42EDC742658";
paths = (
{
closed = 1;
nodes = (
"292 1331 LINE",
"186 1331 LINE",
"186 819 LINE",
"193 589 LINE",
"350 256 LINE",
"542 219 LINE",
"739 303 LINE",
"816 586 LINE",
"806 1326 LINE",
"714 1326 LINE",
"726 539 LINE",
"524 433 LINE",
"292 539 LINE"
);
},
{
closed = 1;
nodes = (
"592 1463 LINE",
"811 1738 LINE",
"568 1740 LINE",
"498 1463 LINE"
);
}
);
userData = {
com.schriftgestaltung.Glyphs.lastChange = "2020-06-12 01:40:01 +0000";
};
width = 1026;
}
);
note = "\012		uacute\012  ";
unicode = 00FA;
},
{
glyphname = ucircumflex;
lastChange = "2020-06-13 10:03:41 +0000";
layers = (
{
layerId = "F37AB417-88C0-44AC-8CB6-E42EDC742658";
paths = (
{
closed = 1;
nodes = (
"312 1301 LINE",
"206 1301 LINE",
"206 803 LINE",
"213 579 LINE",
"370 255 LINE",
"562 219 LINE",
"759 301 LINE",
"836 576 LINE",
"826 1296 LINE",
"734 1296 LINE",
"746 530 LINE",
"544 427 LINE",
"312 530 LINE"
);
},
{
closed = 1;
nodes = (
"769 1377 LINE",
"505 1722 LINE",
"272 1375 LINE",
"466 1363 LINE",
"542 1542 LINE",
"650 1366 LINE"
);
}
);
width = 1059;
}
);
note = "\012		ucircumflex\012  ";
unicode = 00FB;
},
{
glyphname = udieresis;
layers = (
{
layerId = "F37AB417-88C0-44AC-8CB6-E42EDC742658";
paths = (
{
closed = 1;
nodes = (
"384 1730 LINE",
"334 1747 LINE",
"298 1737 LINE",
"267 1719 LINE",
"248 1681 LINE",
"235 1643 LINE",
"229 1610 LINE",
"241 1575 LINE",
"262 1550 LINE",
"293 1525 LINE",
"334 1511 LINE",
"382 1506 LINE",
"418 1520 LINE",
"444 1550 LINE",
"466 1572 LINE",
"478 1612 LINE",
"478 1652 LINE",
"459 1686 LINE",
"444 1709 LINE",
"406 1728 LINE"
);
},
{
closed = 1;
nodes = (
"723 1707 LINE",
"673 1723 LINE",
"636 1713 LINE",
"605 1695 LINE",
"586 1657 LINE",
"574 1619 LINE",
"567 1586 LINE",
"579 1551 LINE",
"601 1527 LINE",
"632 1501 LINE",
"673 1487 LINE",
"721 1482 LINE",
"757 1496 LINE",
"783 1527 LINE",
"805 1548 LINE",
"817 1588 LINE",
"817 1628 LINE",
"797 1662 LINE",
"783 1685 LINE",
"745 1704 LINE"
);
},
{
closed = 1;
nodes = (
"292 1331 LINE",
"186 1331 LINE",
"186 819 LINE",
"193 589 LINE",
"350 256 LINE",
"542 219 LINE",
"739 303 LINE",
"816 586 LINE",
"806 1326 LINE",
"714 1326 LINE",
"726 539 LINE",
"524 433 LINE",
"292 539 LINE"
);
}
);
userData = {
com.schriftgestaltung.Glyphs.lastChange = "2020-06-12 01:40:16 +0000";
};
width = 947;
}
);
note = "\012		udieresis\012  ";
unicode = 00FC;
},
{
glyphname = ugrave;
layers = (
{
layerId = "F37AB417-88C0-44AC-8CB6-E42EDC742658";
paths = (
{
closed = 1;
nodes = (
"288 1331 LINE",
"182 1331 LINE",
"182 819 LINE",
"189 589 LINE",
"346 256 LINE",
"538 219 LINE",
"735 303 LINE",
"812 586 LINE",
"802 1326 LINE",
"710 1326 LINE",
"722 539 LINE",
"520 433 LINE",
"288 539 LINE"
);
},
{
closed = 1;
nodes = (
"418 1463 LINE",
"265 1738 LINE",
"435 1740 LINE",
"484 1463 LINE"
);
}
);
userData = {
com.schriftgestaltung.Glyphs.lastChange = "2020-06-12 01:39:33 +0000";
};
width = 940;
}
);
note = "\012		ugrave\012  ";
unicode = 00F9;
},
{
glyphname = yacute;
lastChange = "2020-06-13 10:25:06 +0000";
layers = (
{
layerId = "F37AB417-88C0-44AC-8CB6-E42EDC742658";
paths = (
{
closed = 1;
nodes = (
"293 720 LINE",
"293 153 LINE",
"406 155 LINE",
"406 705 LINE",
"882 1335 LINE",
"701 1335 LINE",
"344 885 LINE",
"106 1349 LINE",
"-15 1350 LINE"
);
},
{
closed = 1;
nodes = (
"472 1463 LINE",
"691 1738 LINE",
"448 1740 LINE",
"378 1463 LINE"
);
}
);
width = 868;
}
);
note = "\012		yacute\012  ";
unicode = 00FD;
},
{
glyphname = ydieresis;
lastChange = "2020-06-13 10:25:35 +0000";
layers = (
{
layerId = "F37AB417-88C0-44AC-8CB6-E42EDC742658";
paths = (
{
closed = 1;
nodes = (
"314 1730 LINE",
"264 1747 LINE",
"228 1737 LINE",
"197 1719 LINE",
"178 1681 LINE",
"165 1643 LINE",
"159 1610 LINE",
"171 1575 LINE",
"192 1550 LINE",
"223 1525 LINE",
"264 1511 LINE",
"312 1506 LINE",
"348 1520 LINE",
"374 1550 LINE",
"396 1572 LINE",
"408 1612 LINE",
"408 1652 LINE",
"389 1686 LINE",
"374 1709 LINE",
"336 1728 LINE"
);
},
{
closed = 1;
nodes = (
"653 1707 LINE",
"603 1723 LINE",
"566 1713 LINE",
"535 1695 LINE",
"516 1657 LINE",
"504 1619 LINE",
"497 1586 LINE",
"509 1551 LINE",
"531 1527 LINE",
"562 1501 LINE",
"603 1487 LINE",
"651 1482 LINE",
"687 1496 LINE",
"713 1527 LINE",
"735 1548 LINE",
"747 1588 LINE",
"747 1628 LINE",
"727 1662 LINE",
"713 1685 LINE",
"675 1704 LINE"
);
},
{
closed = 1;
nodes = (
"293 720 LINE",
"293 153 LINE",
"406 155 LINE",
"406 705 LINE",
"882 1335 LINE",
"701 1335 LINE",
"344 885 LINE",
"106 1349 LINE",
"-15 1350 LINE"
);
}
);
width = 868;
}
);
note = "\012		ydieresis\012  ";
unicode = 00FF;
},
{
glyphname = Euro;
layers = (
{
layerId = "F37AB417-88C0-44AC-8CB6-E42EDC742658";
paths = (
{
closed = 1;
nodes = (
"1466 149 LINE",
"1510 349 LINE",
"1399 349 LINE",
"1325 215 LINE",
"1147 82 LINE",
"770 82 LINE",
"634 312 LINE",
"578 652 LINE",
"866 1326 LINE",
"1110 1378 LINE",
"1325 1192 LINE",
"1377 1289 LINE",
"1281 1422 LINE",
"1036 1466 LINE",
"659 1341 LINE",
"474 1067 LINE",
"382 719 LINE",
"392 356 LINE",
"600 -7 LINE",
"740 -95 LINE",
"1156 -97 LINE"
);
},
{
closed = 1;
nodes = (
"1017 542 LINE",
"1017 683 LINE",
"121 683 LINE",
"195 542 LINE"
);
},
{
closed = 1;
nodes = (
"1009 816 LINE",
"1009 927 LINE",
"180 927 LINE",
"267 816 LINE"
);
}
);
userData = {
com.schriftgestaltung.Glyphs.lastChange = "2020-06-12 09:22:32 +0000";
};
width = 1606;
}
);
note = "\012		Euro\012  ";
unicode = 20AC;
},
{
glyphname = uni00AD;
layers = (
{
layerId = "F37AB417-88C0-44AC-8CB6-E42EDC742658";
paths = (
{
closed = 1;
nodes = (
"71 690 LINE",
"1006 696 LINE",
"984 928 LINE",
"81 977 LINE"
);
}
);
width = 1125;
}
);
note = "\012		uni00AD\012  ";
unicode = 00AD;
},
{
glyphname = uni00B2;
lastChange = "2020-06-13 08:51:14 +0000";
layers = (
{
layerId = "F37AB417-88C0-44AC-8CB6-E42EDC742658";
paths = (
{
closed = 1;
nodes = (
"411 1482 LINE",
"542 1525 LINE",
"598 1472 LINE",
"562 1386 LINE",
"471 1260 LINE",
"352 1119 LINE",
"649 1095 LINE",
"651 1159 LINE",
"487 1159 LINE",
"517 1233 LINE",
"633 1380 LINE",
"642 1499 LINE",
"599 1567 LINE",
"494 1573 LINE",
"404 1545 LINE"
);
}
);
width = 1014;
}
);
note = "\012		uni00B2\012  ";
unicode = 00B2;
},
{
glyphname = uni00B3;
lastChange = "2020-06-13 08:52:17 +0000";
layers = (
{
layerId = "F37AB417-88C0-44AC-8CB6-E42EDC742658";
paths = (
{
closed = 1;
nodes = (
"383 1546 LINE",
"335 1493 LINE",
"596 1493 LINE",
"464 1328 LINE",
"479 1279 LINE",
"601 1279 LINE",
"578 1162 LINE",
"456 1102 LINE",
"372 1169 LINE",
"315 1139 LINE",
"352 1090 LINE",
"429 1057 LINE",
"589 1057 LINE",
"658 1107 LINE",
"658 1235 LINE",
"632 1337 LINE",
"545 1326 LINE",
"565 1367 LINE",
"644 1484 LINE",
"641 1548 LINE"
);
}
);
width = 1014;
}
);
note = "\012		uni00B3\012  ";
unicode = 00B3;
},
{
glyphname = middot;
layers = (
{
layerId = "F37AB417-88C0-44AC-8CB6-E42EDC742658";
paths = (
{
closed = 1;
nodes = (
"354 665 LINE",
"362 739 LINE",
"288 842 LINE",
"192 842 LINE",
"110 776 LINE",
"103 657 LINE",
"162 591 LINE",
"273 613 LINE"
);
}
);
width = 508;
}
);
note = "\012		middot\012  ";
unicode = 00B7;
},
{
glyphname = uni00B9;
lastChange = "2020-06-13 08:52:41 +0000";
layers = (
{
layerId = "F37AB417-88C0-44AC-8CB6-E42EDC742658";
paths = (
{
closed = 1;
nodes = (
"456 1367 LINE",
"508 1411 LINE",
"511 1018 LINE",
"547 1000 LINE",
"547 1493 LINE",
"497 1494 LINE",
"449 1450 LINE"
);
}
);
width = 1014;
}
);
note = "\012		uni00B9\012  ";
unicode = 00B9;
},
{
glyphname = uni02C9;
layers = (
{
layerId = "F37AB417-88C0-44AC-8CB6-E42EDC742658";
paths = (
{
closed = 1;
nodes = (
"200 1399 LINE",
"192 1199 LINE",
"814 1169 LINE",
"851 1369 LINE"
);
}
);
width = 1024;
}
);
note = "\012		uni02C9\012  ";
unicode = 02C9;
},
{
glyphname = lira;
lastChange = "2020-06-13 09:52:45 +0000";
layers = (
{
layerId = "F37AB417-88C0-44AC-8CB6-E42EDC742658";
paths = (
{
closed = 1;
nodes = (
"287 108 OFFCURVE",
"148 117 OFFCURVE",
"752 117 CURVE",
"997 123 LINE",
"1003 258 LINE",
"764 258 LINE",
"383 252 LINE",
"502 393 LINE",
"582 561 LINE",
"548 733 LINE",
"447 896 LINE",
"318 1005 LINE",
"340 1189 LINE",
"465 1307 LINE",
"723 1346 LINE",
"855 1320 LINE",
"981 1295 LINE",
"1014 1434 LINE",
"875 1470 LINE",
"695 1475 LINE",
"470 1444 LINE",
"305 1355 LINE",
"221 1228 LINE",
"157 1109 LINE",
"157 968 LINE",
"225 842 LINE",
"401 747 LINE",
"401 552 LINE",
"258 370 LINE",
"34 229 LINE",
"55 103 LINE"
);
},
{
closed = 1;
nodes = (
"764 736 LINE",
"755 858 LINE",
"92 876 LINE",
"92 736 LINE"
);
},
{
closed = 1;
nodes = (
"764 482 LINE",
"755 604 LINE",
"92 622 LINE",
"92 482 LINE"
);
}
);
width = 1014;
}
);
note = "\012		lira\012  ";
unicode = 20A4;
},
{
glyphname = afii61352;
layers = (
{
layerId = "F37AB417-88C0-44AC-8CB6-E42EDC742658";
paths = (
{
closed = 1;
nodes = (
"1107 917 LINE",
"1115 991 LINE",
"1041 1094 LINE",
"945 1094 LINE",
"863 1028 LINE",
"856 909 LINE",
"915 843 LINE",
"1026 865 LINE"
);
},
{
closed = 1;
nodes = (
"118 1152 LINE",
"87 227 LINE",
"200 220 LINE",
"240 1032 LINE",
"642 226 LINE",
"769 225 LINE",
"791 1176 LINE",
"667 1219 LINE",
"608 524 LINE",
"283 1211 LINE"
);
}
);
userData = {
com.schriftgestaltung.Glyphs.lastChange = "2020-06-12 02:01:02 +0000";
};
width = 1066;
}
);
note = "\012		afii61352\012  ";
unicode = 2116;
},
{
glyphname = increment;
layers = (
{
layerId = "F37AB417-88C0-44AC-8CB6-E42EDC742658";
paths = (
{
closed = 1;
nodes = (
"163 200 LINE",
"496 1017 LINE",
"814 29 LINE",
"97 148 LINE",
"38 -22 LINE",
"941 -44 LINE",
"467 1399 LINE"
);
}
);
userData = {
com.schriftgestaltung.Glyphs.lastChange = "2020-06-12 09:26:39 +0000";
};
width = 1081;
}
);
note = "\012		increment\012  ";
unicode = 2206;
},
{
glyphname = lessequal;
layers = (
{
layerId = "F37AB417-88C0-44AC-8CB6-E42EDC742658";
paths = (
{
closed = 1;
nodes = (
"967 1317 LINE",
"59 847 LINE",
"43 588 LINE",
"1048 317 LINE",
"1070 512 LINE",
"232 680 LINE",
"329 809 LINE",
"989 1107 LINE"
);
},
{
closed = 1;
nodes = (
"54 161 LINE",
"31 6 LINE",
"1096 28 LINE",
"1081 182 LINE",
"854 128 LINE"
);
}
);
userData = {
com.schriftgestaltung.Glyphs.lastChange = "2020-06-12 09:25:44 +0000";
};
width = 1147;
}
);
note = "\012		lessequal\012  ";
unicode = 2264;
},
{
glyphname = greaterequal;
layers = (
{
layerId = "F37AB417-88C0-44AC-8CB6-E42EDC742658";
paths = (
{
closed = 1;
nodes = (
"274 163 LINE",
"47 217 LINE",
"32 63 LINE",
"1097 41 LINE",
"1074 196 LINE"
);
},
{
closed = 1;
nodes = (
"139 1142 LINE",
"799 844 LINE",
"896 715 LINE",
"58 547 LINE",
"80 352 LINE",
"1085 623 LINE",
"1069 882 LINE",
"161 1352 LINE"
);
}
);
userData = {
com.schriftgestaltung.Glyphs.lastChange = "2020-06-12 09:25:56 +0000";
};
width = 1147;
}
);
note = "\012		greaterequal\012  ";
unicode = 2265;
},
{
glyphname = uni037E;
layers = (
{
layerId = "F37AB417-88C0-44AC-8CB6-E42EDC742658";
paths = (
{
closed = 1;
nodes = (
"318 111 LINE",
"170 15 LINE",
"340 37 LINE",
"452 126 LINE",
"466 311 LINE",
"407 422 LINE",
"289 444 LINE",
"170 363 LINE",
"178 259 LINE",
"355 245 LINE"
);
},
{
closed = 1;
nodes = (
"414 659 LINE",
"422 733 LINE",
"348 836 LINE",
"252 836 LINE",
"170 770 LINE",
"163 651 LINE",
"222 585 LINE",
"333 607 LINE"
);
}
);
width = 557;
}
);
note = "\012		uni037E\012  ";
unicode = 037E;
},
{
glyphname = uni2219;
layers = (
{
layerId = "F37AB417-88C0-44AC-8CB6-E42EDC742658";
paths = (
{
closed = 1;
nodes = (
"354 665 LINE",
"362 739 LINE",
"288 842 LINE",
"192 842 LINE",
"110 776 LINE",
"103 657 LINE",
"162 591 LINE",
"273 613 LINE"
);
}
);
width = 508;
}
);
note = "\012		uni2219\012  ";
unicode = 2219;
},
{
glyphname = uni2215;
layers = (
{
layerId = "F37AB417-88C0-44AC-8CB6-E42EDC742658";
paths = (
{
closed = 1;
nodes = (
"1079 1508 LINE",
"95 43 LINE",
"229 6 LINE",
"1124 1412 LINE",
"1235 1523 LINE"
);
}
